<svg xmlns="http://www.w3.org/2000/svg" xmlns:xlink="http://www.w3.org/1999/xlink" width="515" height="462" viewBox="0 0 515 462">
    <defs>
        <path id="a" d="M.429.951L.394.023l1.498.775s-.421.842-.467.813L.429.95"/>
        <path id="c" d="M12.112 20.285L.839 13.752c-.675-.392-.59-1.075.19-1.527L21.434.398c.78-.453 1.96-.502 2.634-.11L35.342 6.82c.675.391.59 1.075-.19 1.527L14.747 20.175c-.78.452-1.96.501-2.634.11"/>
        <path id="e" d="M26.48 21.84c-1.334-4.929-9.166-7.475-19.078-11.626C5.169 9.28 2.83 8.264.437 7.12c-.417-.235-.364-.65.117-.923l4-2.26a.78.78 0 0 0 .043.034c11.608 7.233 23.07 10.827 21.882 17.869L63.521.682c.01-.07.015-.139.02-.209.01.14.01.278.005.418L26.479 21.84"/>
        <path id="g" d="M22.537 39.837C23.722 32.655 12.278 28.989.687 21.61a.781.781 0 0 1-.042-.035c-.319-.278-.227-.705.218-.971L34.971.256c.234-.139.522-.208.795-.208s.536.069.717.206C49.298 5.372 57.79 11.01 59.307 16.13c.19.647.269 1.286.234 1.913a3.13 3.13 0 0 1-.019.214l-36.985 21.58M9.965 21.998a.728.728 0 0 0-.328.074c-.194.1-.222.265-.063.367l12.504 7.997c.078.05.19.077.307.077a.74.74 0 0 0 .332-.075c.19-.1.22-.264.059-.366l-12.5-7.997a.585.585 0 0 0-.31-.077m4.102-2.65a.74.74 0 0 0-.331.074c-.19.1-.22.264-.064.366l12.503 7.997a.605.605 0 0 0 .312.077.719.719 0 0 0 .327-.074c.195-.1.224-.265.063-.366l-12.502-7.998a.575.575 0 0 0-.308-.077m4.103-2.65a.74.74 0 0 0-.332.075c-.195.1-.22.264-.063.366l12.502 7.997a.605.605 0 0 0 .312.077c.112 0 .23-.025.327-.074.195-.1.224-.265.063-.366l-12.502-7.998a.587.587 0 0 0-.307-.077m4.195-3.662a.719.719 0 0 0-.327.075c-.195.1-.224.264-.063.366l12.502 7.997c.078.051.19.077.307.077a.739.739 0 0 0 .332-.074c.19-.1.22-.265.059-.367l-12.498-7.997a.605.605 0 0 0-.312-.077m4.102-2.65a.74.74 0 0 0-.331.075c-.19.1-.22.263-.059.365l12.502 7.997a.57.57 0 0 0 .308.078.704.704 0 0 0 .327-.075c.195-.1.224-.264.063-.366l-12.502-7.997a.575.575 0 0 0-.308-.077m4.103-2.65a.74.74 0 0 0-.332.074c-.195.1-.22.264-.063.366l12.502 7.997a.6.6 0 0 0 .312.077.718.718 0 0 0 .327-.074c.195-.1.224-.264.063-.366L30.878 7.812a.575.575 0 0 0-.307-.077m4.097-2.65a.733.733 0 0 0-.327.074c-.195.1-.219.264-.063.366l12.502 7.997a.6.6 0 0 0 .313.077.74.74 0 0 0 .327-.074c.195-.1.224-.265.063-.366L34.98 5.16a.605.605 0 0 0-.312-.077m4.103-2.65a.719.719 0 0 0-.327.075c-.195.1-.224.264-.064.366l12.503 7.997a.57.57 0 0 0 .307.077.74.74 0 0 0 .332-.075c.195-.1.22-.264.063-.366L39.083 2.511a.605.605 0 0 0-.312-.077"/>
        <path id="i" d="M13.47 8.737a.61.61 0 0 1-.315-.075L.34.897C.175.797.205.639.405.54A.77.77 0 0 1 .74.47c.12 0 .235.025.32.075l12.815 7.765c.16.1.135.259-.065.356"/>
        <path id="k" d="M13.27 8.939a.615.615 0 0 1-.32-.079L.135.663C-.025.558 0 .39.2.288.3.237.42.212.535.212a.62.62 0 0 1 .32.078L13.67 8.489c.165.104.135.272-.065.375-.1.05-.22.076-.335.076"/>
        <path id="m" d="M13.097 8.674a.603.603 0 0 1-.309-.075L.415.833C.261.734.285.576.478.478A.743.743 0 0 1 .806.405c.116 0 .227.026.304.075l12.373 7.766c.16.099.13.258-.062.356a.722.722 0 0 1-.324.072"/>
        <path id="o" d="M13.36 8.872a.584.584 0 0 1-.315-.079L.23.596C.065.492.095.324.29.221.39.17.51.144.63.144c.12 0 .235.027.315.08L13.76 8.42c.165.104.135.272-.065.375a.721.721 0 0 1-.335.076"/>
        <path id="q" d="M13.184 8.61a.577.577 0 0 1-.304-.074L.507.77C.347.67.377.512.57.414A.722.722 0 0 1 .893.342c.116 0 .227.025.31.075L13.57 8.182c.16.1.13.259-.058.356a.743.743 0 0 1-.328.072"/>
        <path id="s" d="M13.355 8.842a.62.62 0 0 1-.32-.079L.22.567C.06.462.085.294.285.191c.1-.051.22-.076.34-.076C.74.115.86.14.94.194L13.755 8.39c.165.104.135.272-.065.375a.752.752 0 0 1-.335.076"/>
        <path id="u" d="M13.18 8.582a.608.608 0 0 1-.31-.075L.497.742C.343.642.372.484.56.386A.743.743 0 0 1 .888.314c.116 0 .227.025.304.074l12.374 7.766c.159.099.13.258-.063.356a.722.722 0 0 1-.324.072"/>
        <path id="w" d="M13.445 8.775a.589.589 0 0 1-.315-.079L.313.5C.15.395.179.227.378.124A.746.746 0 0 1 .715.048a.6.6 0 0 1 .317.079l12.813 8.197c.165.104.135.272-.06.375a.758.758 0 0 1-.34.076"/>
    </defs>
    <g fill="none" fill-rule="evenodd">
        <path fill="#FFF" d="M459.799 81.36c121.269 47.663 26.317 202.785-149.48 323.568-175.796 120.784-154.826 23.54-186.839-73.685C91.467 234.018 2.84 251.18 1.083 199.988c-1.758-51.193 19.593-42.514 114.233-106.525C209.956 29.453 338.53 33.696 459.8 81.36z" opacity=".608"/>
        <path fill="#DCEEF4" d="M315.06 350.703L119.219 235.17c-10.446-6.051-10.486-13.46-.106-19.625l110.852-65.84 214.391 124.203-129.296 76.796"/>
        <path fill="#887987" d="M445.11 279.669l.574-.085a3.136 3.136 0 0 0 2.638-3.562l-14.164-95.642a3.135 3.135 0 0 0-3.556-2.643l-.574.086a3.136 3.136 0 0 0-2.638 3.561l14.164 95.643a3.134 3.134 0 0 0 3.556 2.642M312.436 359.69c-1.853-.16-3.227-1.81-3.067-3.681l13.253-155.195c.16-1.872 1.79-3.26 3.649-3.098 1.858.161 3.232 1.81 3.072 3.682L316.09 356.592c-.16 1.873-1.795 3.26-3.654 3.098"/>
        <path fill="#635861" d="M324.02 273.703l-6.664-4.415 1.909-18.585 7.091 1.074-2.335 21.926M433.186 218.703l6.17-4.804-3.173-18.196-6.827 1.538 3.83 21.462"/>
        <path fill="#DCEEF4" d="M106.356 299.882l116.986-61.179 64.014 36.82-116.986 61.18-64.014-36.82"/>
        <path fill="#AC3D67" d="M185.42 260.954L119.7 222.99c-6.09-3.518-3.626-11.235 5.477-17.149l23.624-15.347c9.103-5.914 45.912-10.006 52.002-6.488l41.147 25.31c6.091 3.518 3.821 26.022-5.282 31.936l-23.623 15.347c-9.103 5.914-21.534 7.874-27.625 4.355"/>
        <path fill="#161E2C" d="M230.094 265.113c-.395.312-6.161 2.852-6.53 3.144-.568.447-2.25 1.671-3.262 2.329-2.13 1.383-6.77 6.83-13.618 2.434-10.021-6.434 15.554-21.747 15.554-21.747l11.226-5.155c1.367-.628 2.97-.539 4.318.239 2.488 1.436 3.336 4.697 1.816 7.051-2.608 4.041-2.873 6.467-9.504 11.705"/>
        <path fill="#7B4948" d="M229.094 262.113c-.395.312-6.161 2.852-6.53 3.144a60.565 60.565 0 0 1-3.262 2.328c-2.13 1.384-6.77 6.832-13.618 2.435-10.021-6.434 15.554-21.747 15.554-21.747l11.226-5.155c1.367-.628 2.97-.539 4.318.239 2.488 1.435 3.336 4.696 1.816 7.051-2.608 4.04-2.874 6.467-9.504 11.705"/>
        <path fill="#834E4A" d="M237.104 254.703c.645-1.09 1.658-3.165 2.501-4.436 1.584-2.386.55-5.447-2.043-6.902-1.404-.788-3.074-.878-4.498-.242l-5.708 2.55c3.218 1.329 6.87 4.369 9.748 9.03"/>
        <path fill="#C5A584" d="M185.063 225.852c8.277-5.582 16.722-11.32 25.859-15.454.346-.156.711-.29 1.049-.463-2.722 1.4-1.501.603-.748.33.605-.22 1.205-.45 1.819-.649.691-.224 2.683-1.102 3.42-.832-.609-.223-3.11.334-1.041.22 1.33-.074 1.517.888-1.242-.251.226.093.753.236.981.24.748.01-1.837-.78-1.8-.765.223.092.443.223.642.359.568.389-2.427-2.042-1.143-.817 1.103 1.052-1.506-2.49-.838-1.081.12.252.305.643.473.864-1.569-2.074-.89-2.325-.458-.912.238.776.357 1.568.52 2.36.23 1.124-.353-3.268-.144-.972.052.577.104 1.153.142 1.73.151 2.306.174 4.62.214 6.93.02 1.23.041 2.461.074 3.692.015.553-.063 1.205.044 1.746-.47-2.38.566-2.687.158-1.51-.115.33-.2.675-.313 1.007-.266.783-1.58 3.656-.204.663-.479 1.042-.92 2.105-1.383 3.155-1.345 3.05-2.682 6.108-3.892 9.214-2.425 6.23-4.08 12.663-4.432 19.358-.266 5.066 4.677 9.907 9.754 9.682 5.513-.246 9.47-4.256 9.754-9.682.034-.638-.062-1.634.17-2.232-.84 2.171-.032.27.096-.416.233-1.25.523-2.489.85-3.717.772-2.899 1.778-5.733 2.886-8.52.256-.646.479-1.36.805-1.975-1.086 2.043-.298.695-.048.12.458-1.057.925-2.111 1.39-3.166 1.067-2.42 2.215-4.832 3.065-7.336 1.076-3.17.796-6.446.74-9.725-.044-2.528-.06-5.061-.24-7.585-.409-5.75-1.421-11.565-5.786-15.757-5.344-5.131-13.36-4.678-19.841-2.256-11.223 4.193-21.342 11.035-31.198 17.683-4.213 2.842-6.488 8.646-3.5 13.247 2.704 4.163 8.832 6.518 13.346 3.473"/>
        <path fill="#E0E9EE" d="M220.356 251.082c-4.263 3.444-12.667 2.458-15.587-2.379a178.588 178.588 0 0 0-.408 7.69c-.31 10.448 15.385 11.376 15.695.89.061-2.068.167-4.135.3-6.201"/>
        <path fill="#DEBD9D" d="M200.564 247.122l-.207 7.027c-.01.303.069.594.232.846.966 1.49 4.82 6.518 12.397 5.596 6.642-.809 10.288-2.708 11.701-3.611.438-.28.687-.771.668-1.296l-.26-7.181c-.04-1.072-1.162-1.758-2.104-1.264-3.463 1.816-11.066 4.377-20.19-1.309a1.456 1.456 0 0 0-2.237 1.192"/>
        <path fill="#B19377" d="M169.936 214.672c.88 1.917-2.645-7.178-1.248-5.608 2.91 3.27 18.795 23.145 22.931 24.486 4.997 1.62-8.014-10.14-8.014-10.14s41.613-24.642 40.737-25.86c-6.849-9.527-13.343-12.507-26.474-7.325-14.948 5.899-32.142 15.271-27.932 24.447"/>
        <path fill="#161E2C" d="M255.51 279.787c-.41.296-6.32 2.626-6.704 2.903a61.075 61.075 0 0 1-3.373 2.202c-2.198 1.302-7.067 6.554-13.845 1.965-9.918-6.714 16.436-21.06 16.436-21.06l11.518-4.743c1.402-.577 3.02-.437 4.356.38 2.468 1.506 3.218 4.77 1.604 7.055-2.769 3.923-3.117 6.32-9.991 11.298"/>
        <path fill="#7B4948" d="M255.51 275.787c-.41.297-6.32 2.626-6.704 2.903a61.075 61.075 0 0 1-3.374 2.202c-2.197 1.302-7.066 6.554-13.844 1.965-9.918-6.714 16.436-21.06 16.436-21.06l11.517-4.743c1.402-.577 3.02-.436 4.357.38 2.467 1.506 3.218 4.77 1.604 7.056-2.77 3.922-3.117 6.32-9.991 11.297"/>
        <path fill="#834E4A" d="M262.852 268.703c.685-1.063 1.773-3.093 2.664-4.33 1.673-2.322.736-5.398-1.822-6.928-1.385-.829-3.06-.972-4.514-.385l-5.824 2.35c3.19 1.426 6.76 4.566 9.496 9.293"/>
        <path fill="#C5A584" d="M204.015 237.557c7.958-5.743 15.901-11.674 24.397-16.612a60.357 60.357 0 0 1 3.924-2.115c.307-.149.622-.284.926-.438 1.248-.629-1.325.54-1.266.523.652-.188 1.275-.5 1.929-.697.427-.128.865-.208 1.294-.328 1.623-.456-2.962.225-1.172.17 1.183-.037 2.082.52-1.248-.254 1.951.453-2.39-1.326-1.02-.491.992.606-2.35-2.096-1.129-.844 1.013 1.04-1.707-2.439-.832-1.036 1.063 1.706-.592-2.017-.396-1.009.095.492.272.993.393 1.48.54 2.17-.18-2.255-.08-.844.043.606.11 1.208.139 1.816.068 1.43.053 2.864.005 4.295-.194 5.752-.121 11.49-.084 17.247.063 9.51.166 19.062-.507 28.553-.36 5.084 4.728 9.947 9.718 9.723 5.573-.25 9.331-4.276 9.717-9.723 1.093-15.396.185-30.858.606-46.27.177-6.454-.402-13.794-5.45-18.442-6.382-5.874-14.87-3.454-21.735-.032-9.947 4.957-18.964 12.061-27.938 18.537-4.112 2.968-6.519 8.597-3.487 13.303 2.629 4.079 8.887 6.67 13.296 3.488"/>
        <path fill="#E0E9EE" d="M246.356 265.564c-4.323 3.246-12.6 1.993-15.336-2.86-.265 2.514-.49 5.03-.645 7.55-.634 10.264 14.853 11.703 15.49 1.4.125-2.031.294-4.061.491-6.09"/>
        <path fill="#DEBD9D" d="M226.796 261.046l-.437 6.877c-.019.295.05.583.206.836.918 1.49 4.617 6.542 12.237 5.886 6.682-.576 10.397-2.317 11.842-3.156.45-.26.714-.733.712-1.247l-.027-7.043c-.003-1.052-1.106-1.76-2.066-1.307-3.529 1.666-11.23 3.927-20.187-1.94-.943-.618-2.21-.022-2.28 1.094"/>
        <path fill="#442F44" d="M238.853 298.674l.217-.03c1.463-.213 2.474-1.545 2.257-2.976l-10.426-68.73c-.218-1.43-1.58-2.418-3.043-2.206l-.216.032c-1.463.212-2.474 1.544-2.257 2.975l10.427 68.729c.216 1.43 1.578 2.419 3.041 2.206"/>
        <path fill="#635861" d="M112.159 210.677l-.8-.121c-1.283-.195-2.167-1.416-1.977-2.727l14.506-100.077c.19-1.311 1.383-2.217 2.665-2.023l.8.122c1.283.195 2.167 1.415 1.977 2.727l-14.506 100.077c-.19 1.311-1.383 2.216-2.665 2.022"/>
        <path fill="#A4BDD7" d="M103.356 125.703h18v-10h-18zM430.356 191.703h18v-10h-18z"/>
        <path fill="#A4BDD7" d="M327.807 257.347l-222.1-128.111c-3.482-2.008-3.046-5.516.975-7.835l103.637-59.78c4.02-2.319 10.102-2.57 13.584-.562L446.006 189.17c3.482 2.009 3.044 5.517-.978 7.835l-103.637 59.78c-4.017 2.319-10.102 2.57-13.584.562"/>
        <path fill="#ECF5F9" d="M327.807 247.347l-222.1-128.111c-3.482-2.008-3.046-5.516.975-7.835l103.637-59.78c4.02-2.319 10.102-2.57 13.584-.562L446.006 179.17c3.482 2.009 3.044 5.517-.978 7.835l-103.637 59.78c-4.017 2.319-10.102 2.57-13.584.562"/>
        <path fill="#93335B" d="M169.621 189.307l-46.186 35.558c-7.543 4.603-13.207.035-13.199-7.875l-.88-12.877c.007-7.909 6.185-18.146 13.728-22.748l46.571-28.417c7.543-4.603 13.708-1.897 13.701 6.012l-.007 7.598c-.008 7.909-6.186 18.146-13.728 22.749"/>
        <path fill="#442F44" d="M109.646 302.673c-1.466-.22-2.478-1.608-2.26-3.097l12.63-86.545c.219-1.49 1.583-2.52 3.05-2.298 1.466.22 2.478 1.608 2.26 3.098l-12.63 86.545c-.218 1.49-1.583 2.518-3.05 2.297M170.75 338.672a2.814 2.814 0 0 1-2.363-3.198l14.389-97.368a2.806 2.806 0 0 1 3.186-2.372 2.814 2.814 0 0 1 2.363 3.198L173.936 336.3a2.807 2.807 0 0 1-3.186 2.371"/>
        <path fill="#C73D6B" d="M181.753 270.312l-58.148-33.695c-6.25-3.622-9.705-10.836-9.705-10.836-2.339-5.391 3.24-9.293 9.491-5.67l61.14 36.127c6.25 3.622 8.61 7.405 7.6 11.896 0 0-2.456 6.281-10.378 2.178"/>
        <path fill="#A4BDD7" d="M298.762 152.076l-64.915-37.215a1.197 1.197 0 0 0-1.2.006l-19.706 11.55a1.177 1.177 0 0 0 .01 2.04l64.695 37.088c.368.21.821.21 1.19 0l19.926-11.423a1.177 1.177 0 0 0 0-2.046"/>
        <path fill="#FFFFFE" d="M278.646 163.545l-64.695-37.089a1.177 1.177 0 0 1-.01-2.04l19.707-11.549c.37-.217.828-.218 1.199-.006l64.914 37.215a1.177 1.177 0 0 1 0 2.046l-19.926 11.423a1.194 1.194 0 0 1-1.19 0"/>
        <path fill="#A4BDD7" d="M237.386 118.667c-.106.066-.32.04-.479-.06l-4.397-2.747c-.158-.1-.202-.234-.096-.299l2.912-1.822c.106-.066.32-.039.479.06l4.397 2.747c.158.1.202.234.096.3l-2.912 1.821M242.386 125.666c-.107.067-.32.04-.48-.06l-4.397-2.747c-.158-.099-.2-.232-.094-.298l2.914-1.823c.103-.064.317-.038.475.061l4.397 2.747c.16.1.202.233.098.298l-2.913 1.822M239.386 128.667c-.106.067-.32.038-.477-.06l-4.399-2.748c-.156-.098-.203-.233-.097-.299l2.914-1.822c.103-.065.32-.036.477.061l4.398 2.748c.158.099.201.233.098.298l-2.914 1.822M232.384 129.668c-.104.065-.32.038-.477-.06l-4.398-2.748c-.157-.098-.2-.233-.096-.298l2.914-1.823c.105-.065.321-.039.478.06l4.399 2.748c.157.098.199.232.095.298l-2.915 1.823M227.9 132.676c-.106.063-.359.013-.567-.112l-5.747-3.447c-.205-.123-.29-.276-.185-.339l3.412-2.048c.103-.062.36-.013.565.11l5.747 3.447c.208.125.29.279.187.34l-3.413 2.049M266.116 153.678c-.083.055-.272.018-.423-.082l-4.173-2.782c-.152-.101-.209-.228-.126-.284l1.202-.802c.082-.054.274-.017.426.084l4.173 2.782c.15.1.205.227.123.282l-1.202.802M271.116 157.677c-.083.056-.272.02-.423-.081l-4.173-2.782c-.152-.1-.209-.229-.126-.284l1.202-.801c.082-.055.274-.018.426.083l4.173 2.782c.15.1.205.227.123.282l-1.202.801M277.154 160.679c-.08.054-.27.015-.422-.086l-4.21-2.806c-.15-.1-.21-.228-.13-.282l1.166-.778c.08-.053.273-.014.424.087l4.209 2.805c.151.101.21.228.129.282l-1.166.778M274.153 155.679c-.08.054-.27.015-.421-.086l-4.21-2.806c-.15-.1-.21-.228-.13-.281l1.167-.78c.08-.053.272-.012.422.088l4.21 2.806c.151.1.209.227.13.28l-1.168.779M257.957 149.67c-.103.061-.314.035-.47-.057L229.507 133c-.153-.09-.198-.216-.096-.278l3.345-1.987c.1-.06.315-.035.468.056l27.98 16.612c.156.092.198.218.098.278l-3.345 1.988"/>
        <path fill="#A4BDD7" d="M255.147 146.703a1.699 1.699 0 0 1-.237-.121l-22.34-12.627a1.338 1.338 0 0 1-.214-.134l.209-.118c.006-.003.115.052.236.12l22.34 12.627c.124.07.221.131.215.135l-.209.118M238.385 132.668c-.104.065-.319.038-.478-.061l-4.397-2.748c-.156-.097-.202-.233-.098-.298l2.914-1.823c.104-.065.323-.036.479.061l4.397 2.747c.16.1.201.234.096.3l-2.913 1.822M244.384 136.668c-.103.065-.32.038-.476-.06l-4.397-2.748c-.158-.098-.203-.233-.099-.298l2.915-1.823c.105-.066.321-.038.48.06l4.397 2.748c.156.097.2.232.095.298l-2.915 1.823M250.384 139.668c-.104.065-.32.038-.476-.06l-4.4-2.749c-.156-.098-.2-.232-.095-.297l2.915-1.823c.104-.065.32-.04.477.06l4.399 2.747c.157.098.2.233.095.299l-2.915 1.823M256.385 143.668c-.104.065-.318.038-.477-.06l-4.397-2.748c-.16-.1-.202-.234-.098-.299l2.914-1.822c.104-.065.32-.04.479.06l4.397 2.748c.158.099.2.233.095.298l-2.913 1.823M262.385 146.668c-.104.065-.32.037-.48-.062l-4.396-2.747c-.157-.098-.2-.232-.096-.298l2.914-1.822c.105-.065.32-.039.477.06l4.397 2.746c.159.1.203.235.098.3l-2.914 1.823M268.385 150.667c-.104.066-.32.039-.478-.06l-4.397-2.747c-.158-.099-.201-.233-.098-.299l2.915-1.822c.104-.065.32-.039.479.06l4.396 2.747c.158.099.202.234.097.3l-2.914 1.821M282.496 157.67c-.1.06-.307.036-.46-.056l-11.532-6.918c-.152-.091-.194-.215-.093-.275l2.805-1.685c.1-.06.307-.036.46.055l11.532 6.919c.153.09.193.215.093.276l-2.805 1.684M245.384 132.667c-.106.066-.316.04-.475-.06l-4.399-2.748c-.158-.099-.202-.231-.096-.297l2.915-1.824c.103-.064.317-.038.475.061l4.399 2.748c.159.1.2.232.096.297l-2.915 1.823M251.385 135.667c-.106.066-.32.038-.476-.06l-4.4-2.749c-.157-.097-.201-.23-.095-.297l2.915-1.823c.103-.064.317-.037.474.06l4.4 2.75c.157.097.2.232.097.296l-2.915 1.823M257.385 139.668c-.105.066-.32.037-.477-.061l-4.397-2.748c-.156-.097-.204-.232-.098-.298l2.914-1.823c.103-.065.322-.036.478.061l4.397 2.748c.157.098.201.233.099.297l-2.916 1.824M263.385 142.667c-.106.066-.32.039-.477-.06l-4.397-2.747c-.158-.1-.203-.232-.098-.298l2.916-1.824c.103-.064.318-.038.476.061l4.397 2.748c.158.098.201.232.098.297l-2.915 1.823M269.386 146.667c-.106.066-.32.038-.477-.06l-4.399-2.748c-.158-.1-.202-.232-.096-.298l2.914-1.822c.103-.065.317-.04.476.06l4.399 2.748c.157.098.2.233.097.298l-2.914 1.822"/>
        <path fill="#A4BDD7" d="M275.385 149.667c-.106.066-.318.039-.476-.06l-4.397-2.747c-.16-.1-.204-.232-.099-.298l2.915-1.824c.104-.064.318-.038.478.063l4.397 2.746c.158.099.2.232.097.297l-2.915 1.823M281.385 153.667c-.106.066-.319.039-.476-.06l-4.4-2.748c-.157-.099-.2-.231-.095-.297l2.915-1.824c.103-.064.317-.038.474.06l4.4 2.75c.157.097.2.231.097.296l-2.915 1.823M248.385 129.667c-.106.066-.32.04-.479-.06l-4.398-2.748c-.157-.097-.2-.231-.094-.298l2.915-1.823c.103-.064.318-.037.474.06l4.399 2.748c.158.1.201.233.097.298l-2.914 1.823M254.385 132.667c-.106.066-.321.039-.477-.059l-4.398-2.747c-.158-.1-.202-.234-.096-.3l2.915-1.823c.103-.064.318-.038.476.061l4.398 2.748c.157.097.2.232.097.297l-2.915 1.823M260.386 136.667c-.107.066-.321.04-.48-.06l-4.398-2.747c-.157-.099-.2-.232-.094-.299l2.915-1.823c.103-.064.318-.037.475.06l4.397 2.748c.16.1.202.233.099.298l-2.914 1.823M266.385 139.666c-.106.067-.319.04-.478-.058l-4.397-2.748c-.159-.099-.202-.233-.096-.3l2.914-1.822c.103-.064.318-.038.477.061l4.398 2.748c.158.1.2.232.096.297l-2.914 1.822M272.385 143.667c-.107.066-.321.039-.476-.058l-4.4-2.748c-.158-.1-.2-.233-.094-.3l2.915-1.823c.103-.064.316-.038.476.061l4.398 2.749c.156.097.199.231.096.296l-2.915 1.823M278.386 146.667c-.107.066-.321.04-.48-.06l-4.398-2.748c-.156-.097-.2-.232-.094-.298l2.914-1.823c.104-.065.32-.037.475.06l4.398 2.748c.159.1.202.233.099.298l-2.914 1.823M284.386 149.667c-.107.066-.321.039-.479-.06l-4.398-2.747c-.158-.099-.2-.232-.095-.299l2.915-1.823c.103-.064.317-.038.476.061l4.398 2.748c.157.098.2.232.097.297l-2.914 1.823M236.402 121.672c-.106.057-.32.034-.477-.052l-7.415-4.044c-.158-.086-.202-.202-.096-.26l2.898-1.582c.103-.057.317-.033.475.053l7.415 4.044c.158.086.2.202.098.258l-2.898 1.583M294.401 150.672c-.105.057-.318.034-.475-.052l-7.418-4.045c-.155-.084-.2-.202-.095-.259l2.898-1.582c.105-.057.32-.033.475.052l7.417 4.045c.157.085.2.202.096.26l-2.898 1.581M233.502 125.67c-.101.06-.305.036-.458-.054l-8.539-4.98c-.152-.088-.195-.208-.094-.267l2.8-1.634c.099-.058.305-.034.458.055l8.539 4.98c.153.09.193.208.094.266l-2.8 1.635M226.55 125.673c-.098.055-.302.033-.451-.05l-5.597-3.11c-.15-.082-.19-.195-.093-.25l2.753-1.53c.098-.054.302-.033.452.05l5.597 3.11c.15.082.19.195.091.25l-2.752 1.53M243.385 121.667c-.106.066-.319.04-.48-.06l-4.395-2.746c-.158-.1-.202-.234-.097-.3l2.914-1.822c.105-.066.32-.039.479.06l4.395 2.747c.16.1.203.233.097.299l-2.913 1.822M249.386 125.667c-.105.066-.32.039-.48-.06l-4.396-2.747c-.157-.098-.202-.233-.097-.3l2.913-1.82c.106-.067.32-.04.478.06l4.398 2.746c.158.1.202.233.096.3l-2.912 1.821M255.384 128.667c-.105.066-.317.04-.476-.06l-4.399-2.747c-.157-.099-.2-.233-.095-.298l2.913-1.823c.106-.066.32-.039.477.06l4.399 2.748c.159.1.2.231.095.297l-2.914 1.823M261.385 132.667c-.105.066-.32.039-.479-.06l-4.395-2.746c-.16-.1-.203-.234-.097-.3l2.913-1.822c.106-.066.32-.039.48.061l4.395 2.746c.158.099.202.233.096.3l-2.913 1.821M267.384 135.667c-.105.066-.317.04-.476-.06l-4.397-2.746c-.16-.1-.203-.234-.097-.3l2.913-1.822c.106-.066.32-.039.48.061l4.396 2.747c.16.1.2.232.094.298l-2.913 1.822M273.385 139.667c-.105.066-.32.039-.477-.059l-4.4-2.749c-.157-.098-.2-.232-.094-.297l2.913-1.822c.106-.067.32-.04.477.058l4.4 2.749c.156.098.2.232.094.298l-2.913 1.822M279.386 142.667c-.105.066-.32.039-.479-.06l-4.396-2.746c-.16-.1-.203-.235-.098-.3l2.913-1.822c.106-.066.32-.038.48.06l4.396 2.748c.158.099.202.232.096.298l-2.912 1.822M285.384 145.667c-.105.066-.318.04-.475-.059l-4.402-2.749c-.156-.098-.198-.232-.093-.298l2.913-1.821c.106-.067.32-.04.476.058l4.4 2.75c.158.098.2.23.095.297l-2.914 1.822"/>
        <path fill="#A4BDD7" d="M288.052 148.793a.609.609 0 0 0-.244-.086.318.318 0 0 0-.204.03l-2.755 1.699c-.046.028-.068.073-.05.127.02.054.069.108.138.15l1.085.668-3.612 2.228c-.047.029-.065.074-.047.128.018.054.069.107.139.15l2.8 1.725c.071.044.156.075.245.087.088.012.16 0 .208-.03l6.548-4.037c.046-.029.065-.073.046-.128-.018-.055-.07-.107-.14-.15l-4.157-2.561"/>
        <path fill="#EFA37E" d="M143.263 138.285c3.601 4.89 7.197 9.83 11.17 14.427 1.946 2.253 4.174 4.77 7.112 5.671 3.943 1.21 7.772-1.128 8.959-4.97.527-1.706.494-3.599.595-5.372.023-.4.059-.8.083-1.199.097-1.651-.379 1.523-.042.26.083-.31.147-.638.214-.953.364-1.715-.576 1.025-.079.115.717-1.312-1.07 1.122-.227.294.633-.621-1.456 1.028-.697.552.455-.285 1.224-.418-.813.318 1.383-.5-1.062-.129-.413 0 1.163.232 2.621.025 3.8-.045 11.069-.665 21.146-5.507 30.438-11.268 4.361-2.703 8.58-5.649 13.036-8.197.979-.56 1.97-1.1 2.985-1.593.406-.197.817-.382 1.228-.57-1.603.733.141-.028.492-.146.863-.292 1.73-.469 2.617-.665-1.798.398-.75.064-.235.092.506.027 2.122.218.036-.102 3.313.508 6.68-.84 7.643-4.351.808-2.95-1.003-7.152-4.34-7.664-8.574-1.316-16.008 3.638-22.92 8.085-4.029 2.592-8.035 5.224-12.227 7.546-4.815 2.668-8.066 4.193-13.334 5.494-2.692.665-3.62.81-6.078.912-1.962.082-3.92-.148-5.845.399-3.353.952-5.688 3.536-6.811 6.766-.658 1.89-.823 3.93-.938 5.92-.04.705-.092 1.415-.11 2.12-.04 1.45.216-1.12.108-.668-.308 1.3.228-.38.354-.594.77-1.311 2.644-2.642 4.694-2.635 1.926.006 1.867.339 1.246.148 1.891.58 1.464.663.844.299-.776-.456.418-.221.625.504-.052-.182-.607-.535-.75-.67-.478-.45-.928-.929-1.372-1.412-3.992-4.345-6.825-8.394-10.318-13.137-1.99-2.702-5.385-4.063-8.501-2.235-2.658 1.56-4.234 5.802-2.23 8.524"/>
        <path fill="#A4BDD7" d="M333.87 165.668c-4.67 2.725-12.271 2.712-16.97-.03-4.704-2.742-4.728-7.174-.054-9.9 4.67-2.725 12.266-2.712 16.97.03 4.699 2.742 4.723 7.174.053 9.9M398.3 180.953c-4.088 2.34-10.739 2.333-14.851-.014-4.108-2.348-4.127-6.146-.039-8.486 4.088-2.339 10.739-2.332 14.851.015 4.113 2.347 4.127 6.146.04 8.485"/>
        <path fill="#7777AB" d="M329.302 164.959c-4.088 2.336-10.736 2.324-14.848-.026-4.113-2.351-4.132-6.15-.048-8.486 4.088-2.335 10.736-2.324 14.853.027 4.112 2.35 4.132 6.15.043 8.485"/>
        <path fill="#7777AB" d="M330.356 160.703l-19-.071v-16.929l19 .158v16.842"/>
        <path fill="#6C6CA3" d="M326.338 143.703v15.98l-.02.619c.015 2.694-1.392 3.165-3.516 4.374-1.273.724-2.84 1.529-4.446 1.815 3.725.663 7.918-.293 10.857-1.967 2.123-1.209 3.158-2.147 3.143-4.842h-.01l-.065-15.85-5.943-.129"/>
        <path fill="#AEAAC9" d="M329.302 147.96c-4.088 2.335-10.736 2.323-14.848-.027-4.113-2.35-4.132-6.15-.048-8.486 4.088-2.335 10.736-2.324 14.853.027 4.112 2.35 4.132 6.15.043 8.485"/>
        <path fill="#9C99BF" d="M328.738 147.25c-3.502 1.946-9.199 1.937-12.726-.022-3.527-1.96-3.542-5.125-.04-7.071 3.502-1.947 9.204-1.937 12.726.022 3.527 1.959 3.547 5.124.04 7.07"/>
        <path fill="#515073" d="M328.149 143.188c-3.494-1.971-9.151-1.981-12.625-.022-1.035.583-1.747 1.274-2.168 2.009.426.746 1.153 1.45 2.207 2.043 3.5 1.972 9.151 1.981 12.625.022 1.035-.582 1.752-1.273 2.168-2.008-.42-.747-1.153-1.45-2.207-2.044"/>
        <path fill="#66638A" d="M315.46 147.21c-1.003-.594-1.695-1.3-2.104-2.051a4.803 4.803 0 0 1 1.004-1.251c2.937-.505 6.224-.077 8.526 1.288 1 .595 1.696 1.3 2.1 2.051.187.334.317.658.37.97a13.8 13.8 0 0 1-1.374.282c-2.932.504-6.22.077-8.521-1.289"/>
        <path fill="#3F3E5B" d="M328.824 151.04c1.535.792 3.227 1.358 3.802 3.163.374 1.18.094 2.959.094 4.188-.005 1.03.31 3.645-.905 3.662-.63.01-1.771-.817-2.342-1.108-.846-.428-1.588.819-.747 1.248 1.018.516 2.616 1.667 3.836 1.492 1.525-.218 1.57-1.87 1.604-3.034.059-2.23.467-5.13-.133-7.3-.536-1.946-2.814-2.707-4.466-3.558-.841-.433-1.584.815-.743 1.248"/>
        <path fill="#514E70" d="M142.798 127.014c-4.03 4.353-3.908 7.166-4.399 13.344-.48 6.04 3.097 11.455 8.802 13.36l56.842 18.985s15.898-22.074-2.763-30.085c-9.707-4.168-16.278-9.926-23.55-14.968-10.684-7.404-25.622-10.692-34.932-.636"/>
        <path fill="#514E70" d="M136.696 224.265c-3.822-1.36-2.771-54.334 1.762-90.562l66.898 30.485c-5.923 31.352-5.903 55.146-3.263 92.515l-65.397-32.438"/>
        <path fill="#40405B" d="M205.289 163.641l-11.12-4.938c-6.764 31.76-8.094 54.8-3.19 90.588l-.184-.053c.017 2.072-1.553 4.323-4.614 6.114-5.454 3.19 2.538 4.811 7.992 1.62l14.183-27.802c-3.067-30.572-10.671-24.087-3.067-65.529"/>
        <path fill="#C73D6B" d="M241.55 240.658l-46.294 28.609c-7.498 4.633-13.293 2.459-12.88-4.833l.4-7.004c.414-7.292 6.888-17.049 14.385-21.682l46.295-28.608c7.498-4.634 13.293-2.46 12.88 4.832l-.4 7.005c-.413 7.291-6.887 17.048-14.385 21.681"/>
        <path fill="#C73D6B" d="M113.704 222.58l-7.193-64.754c-1.4-9.422 6.863-12.002 17.896-5.588l44.119 25.65c7.949 4.621 15.262 12.776 18.283 20.388l16.686 42.039c4.783 12.051-11.415 31.686-22.552 25.054l-67.239-42.79"/>
        <path fill="#3F3E5B" d="M289.266 179.541l-8.766 5.937c-3.232 2.188-7.688 1.366-9.903-1.827-2.215-3.194-1.384-7.597 1.849-9.786l8.766-5.936c3.232-2.188 7.688-1.366 9.903 1.827 2.216 3.193 1.384 7.596-1.849 9.785"/>
        <path fill="#EFA37E" d="M205.16 165.42c5.16 4.672 9.78 9.789 14.352 15.036 3.223 3.698 6.625 7.15 11.256 8.955 11.085 4.321 23.494-3.178 33.104-8.054 6.677-3.388 12.163-6.51 19.036-8.23 7.793-1.95 4.492-14.124-3.318-12.17-5.995 1.5-11.673 4.31-17.189 7.061-2.896 1.445-5.77 2.935-8.67 4.375a182.36 182.36 0 0 1-4.08 1.972c-1.66.773-2.106.977-3.328 1.461a42.765 42.765 0 0 1-7.072 2.145c-1.122.234.94.044-.495.021-.467-.008-.935.026-1.403.012-.511-.014-1.017-.078-1.526-.108 1.179.068.649.092-.121-.11-.416-.109-.856-.337-1.273-.406.794.131.934.488.132.015-.324-.19-.653-.368-.97-.573-.655-.423-1.16-1.08-.296-.169-1.397-1.474-2.92-2.8-4.273-4.334-4.838-5.483-9.614-10.912-15.042-15.824-2.51-2.272-6.349-2.504-8.824 0-2.286 2.312-2.522 6.643 0 8.925"/>
        <path fill="#514E70" d="M193.657 160.055l23.92 23.333c7.772 5.692 17.985-8.62 11.957-13.836l-23.288-24.37c-3.868-3.32-9.094-3.303-12.087.04-3.12 3.484-4.106 10.864-.502 14.833"/>
        <path fill="#FFFEFE" d="M213.873 179.592c6.68-2.14 11.248-5.761 13.381-12.439.784-2.455-3.188-3.505-3.97-1.059-1.696 5.313-5.23 7.965-10.505 9.657-2.502.802-1.43 4.65 1.094 3.841"/>
        <path fill="#A4BDD7" d="M251.356 91.276h-.008c-.001-.493-.141-.519-.442-.697l-11.14-6.606c-.668-.395-1.834-.353-2.604.103l-20.168 11.929c-.402.237-.612.536-.632.826l-.006-.005.034 1.143.006.005c-.1.321.027.645.41.872l11.141 6.59c.334.198.792.285 1.263.264.471-.02.955-.146 1.34-.374l20.168-11.932c.41-.242.62-.55.631-.845l.005.03.002-1.303"/>
        <g transform="translate(213.356 95.703)">
            <mask id="b" fill="#fff">
                <use xlink:href="#a"/>
            </mask>
            <path d="M.429.951L.394.023l1.498.775s-.421.842-.467.813L.429.95" mask="url(#b)"/>
        </g>
        <g transform="translate(213.356 83.703)">
            <mask id="d" fill="#fff">
                <use xlink:href="#c"/>
            </mask>
            <path d="M12.112 20.285L.839 13.752c-.675-.392-.59-1.075.19-1.527L21.434.398c.78-.453 1.96-.502 2.634-.11L35.342 6.82c.675.391.59 1.075-.19 1.527L14.747 20.175c-.78.452-1.96.501-2.634.11" mask="url(#d)"/>
        </g>
        <path fill="#B0CADF" d="M227.356 97.33l7.931-13.262c.764-.441 1.92-.489 2.58-.107l11.042 6.367c.662.38.579 1.047-.185 1.487l-19.99 11.526a2.96 2.96 0 0 1-1.328.362l-.05-6.373"/>
        <path fill="#89A8CA" d="M235.356 92.795l2.133-2.638 11.867-.454-.003 1.236-12.968 3.764-1.029-1.908"/>
        <path fill="#3F3E5B" d="M215.356 97.428c0 .246-.224.346-.5.222-.276-.125-.5-.425-.5-.672 0-.246.224-.345.5-.222.276.125.5.425.5.672M225.947 102.446l-11.14-6.366c-.668-.381-.584-1.048.187-1.488l20.167-11.525c.771-.44 1.937-.488 2.604-.106l11.14 6.365c.668.382.584 1.048-.187 1.488l-20.167 11.525c-.771.44-1.937.488-2.604.107"/>
        <path fill="#515073" d="M243.702 87.658l-3.255-1.628c-.135-.067-.118-.185.037-.263.156-.077.392-.086.526-.019l3.255 1.628c.135.067.118.186-.037.263-.156.077-.392.086-.526.019"/>
        <path fill="#3F3E5B" d="M221.156 100.68l-2.6-1.441a.457.457 0 0 1-.2-.368c0-.14.09-.206.2-.145l2.6 1.441c.11.062.2.227.2.368s-.09.206-.2.145"/>
        <path fill="#515073" d="M246.445 92.689l.822-.648c.049-.039.089-.143.089-.232 0-.089-.04-.13-.089-.091l-.822.648c-.049.038-.089.142-.089.231 0 .089.04.13.089.092M244.445 93.689l.822-.649c.049-.038.089-.142.089-.23 0-.09-.04-.13-.089-.092l-.822.648c-.049.038-.089.143-.089.231 0 .089.04.13.089.092M222.92 98.413c-.584.389-1.533.387-2.121-.005-.588-.391-.59-1.025-.007-1.414.584-.39 1.534-.388 2.121.005.588.391.59 1.025.007 1.414"/>
        <path fill="#9BC1DD" d="M235.95 83.783l-17.292 9.837a.591.591 0 0 0 0 1.031l10.499 5.972a.613.613 0 0 0 .604 0l17.293-9.837a.59.59 0 0 0 0-1.03l-10.5-5.973a.612.612 0 0 0-.603 0"/>
        <path fill="#829DB3" d="M394.015 178.814c-4.478 2.53-11.759 2.517-16.265-.029-4.507-2.546-4.526-6.662-.053-9.192 4.478-2.531 11.759-2.518 16.265.028 4.507 2.547 4.526 6.662.053 9.193"/>
        <path fill="#829DB3" d="M368.356 157.703l5.487 16.624 23.216.376 5.297-16.021-34-.979"/>
        <path fill="#718C9E" d="M395.75 158.703l-5.314 16.447c-.302.968-1.405 2.604-3.313 3.696-1.38.79-3.025 1.271-4.767 1.568 3.928.655 8.3.22 11.378-1.54 1.908-1.093 3.006-2.756 3.309-3.724h.004l5.309-16.447h-6.606"/>
        <path fill="#90ADC2" d="M397.415 163.797c-6.618 3.892-17.385 3.872-24.041-.045-6.66-3.917-6.695-10.25-.077-14.142 6.618-3.893 17.38-3.873 24.041.044 6.661 3.918 6.695 10.25.077 14.143"/>
        <path fill="#2C2E46" d="M395.996 162.232c-5.84 3.31-15.337 3.293-21.21-.037-5.88-3.33-5.91-8.712-.07-12.021 5.84-3.31 15.337-3.292 21.21.038 5.88 3.33 5.91 8.711.07 12.02"/>
        <path fill="#5BBBA4" d="M373.834 152.824c-.71-.945-1.345-2.01-1.46-3.192-.122-1.183.4-2.497 1.47-2.986 1.244-.569 2.72.14 3.682 1.116.963.976 1.65 2.22 2.69 3.112-1.33-4.273-2.665-8.545-3.996-12.818-.407-1.297-.818-2.664-.542-3.996.27-1.332 1.485-2.572 2.811-2.352 2.545.423 2.173 4.787 4.437 6.039a33.209 33.209 0 0 1-3.334-10.177c-.324-2.074-.43-4.296.494-6.176.924-1.88 3.179-3.227 5.12-2.482 2.394.923 2.864 4.093 2.95 6.69.112 3.34.219 6.68.33 10.02.808-3.345 2.061-7.204 5.288-8.29.881 4.582.209 9.455-1.877 13.618.857-1.52 2.521-2.535 4.248-2.586.813 4.673-.764 9.708-4.093 13.049.92-1.033 1.834-2.067 2.753-3.1.823 3.238-.295 6.9-2.772 9.11-5.807 5.172-14.255.64-18.199-4.599"/>
        <path fill="#E79D3A" d="M254.356 4.37l4.668-3.667 10.332 11.28s-6.589 4.72-7.188 4.72c-.599 0-7.812-12.334-7.812-12.334"/>
        <path fill="#86A4BF" d="M294.675 126.05l-19.193-11.132c-1.54-.893-1.494-2.346.1-3.195l27.104-14.44c1.501-.8 3.831-.768 5.282.073l17.259 10.012c1.466.848 1.51 2.212.102 3.08l-25.173 15.562c-1.47.908-3.953.926-5.481.04"/>
        <path fill="#7E91AE" d="M287.356 109.703l3-2-3 2"/>
        <path fill="#697E9A" d="M309.432 123.703l-.076-.054 3.924-2.946.076.053-3.924 2.947"/>
        <path fill="#F9CE3C" d="M353.147 55.933h.029L260.774 2.406l-.859-.553c-.704-.41-1.559.06-1.559.932l.778.23h.52V77.8c0 .947.362 2.087 1.126 2.531 0 0 93.474 49.306 93.474 48.359l.102-70.42v-.137c0-.872-.384-1.82-1.083-2.23l-.126.03z"/>
        <path fill="#E79D3A" d="M341.547 122.771c3.783 9.513 12.67 8.925 12.67 8.925l.139-74.003v-.37c0-.478-.034-1.168-.265-1.62l-38.735 32.553c11.93-12.194 18.65 15.546 26.191 34.515z"/>
        <path fill="#3F3E5B" d="M349.063 130.53l-94.254-54.187c-.715-.41-1.3-1.425-1.302-2.256l-.151-68.447c-.002-.83.58-1.174 1.295-.763l94.25 54.186c.718.41 1.304 1.426 1.304 2.256l.151 68.448c0 .83-.58 1.173-1.293.763"/>
        <path fill="#FFF" d="M257.356 70.409l.192-59.706 88.808 51.295-.19 59.705z"/>
        <path fill="#6A678D" d="M324.072 62.552l-48.43-27.345c-.71-.401-1.286-1.477-1.286-2.403 0-.926.576-1.35 1.286-.95l48.43 27.346c.71.4 1.284 1.476 1.284 2.402 0 .926-.574 1.351-1.284.95"/>
        <path fill="#C73D6B" d="M324.09 77.55l-38.466-22.3c-.7-.405-1.268-1.494-1.268-2.431 0-.938.568-1.369 1.268-.963l38.465 22.3c.701.405 1.267 1.494 1.267 2.432 0 .937-.566 1.369-1.267.962"/>
        <path fill="#6A678D" d="M324.11 86.552l-12.504-7.325c-.69-.404-1.25-1.485-1.25-2.416 0-.931.56-1.36 1.25-.956l12.505 7.325c.689.403 1.245 1.485 1.245 2.416 0 .93-.556 1.359-1.245.956M293.043 67.556l-6.374-3.437c-.725-.39-1.313-1.44-1.313-2.342 0-.903.588-1.318 1.313-.927l6.374 3.438c.725.39 1.313 1.439 1.313 2.341 0 .903-.588 1.318-1.313.927M285.048 72.558l-8.385-4.481c-.722-.387-1.307-1.422-1.307-2.314 0-.891.585-1.3 1.307-.915l8.385 4.482c.722.386 1.308 1.421 1.308 2.313 0 .891-.586 1.3-1.308.915"/>
        <path fill="#C73D6B" d="M298.074 88.55l-21.436-12.297c-.708-.406-1.282-1.496-1.282-2.434 0-.938.574-1.369 1.282-.963l21.436 12.298c.708.406 1.282 1.495 1.282 2.433 0 .939-.574 1.37-1.282.963"/>
        <path fill="#6A678D" d="M324.075 95.55l-33.436-19.277c-.709-.409-1.283-1.505-1.283-2.448 0-.943.574-1.376 1.283-.968l33.436 19.277c.704.408 1.281 1.504 1.281 2.447 0 .943-.577 1.377-1.281.968M306.064 75.546l-5.419-3.185c-.712-.42-1.289-1.542-1.289-2.508 0-.967.577-1.41 1.29-.992l5.418 3.185c.712.418 1.292 1.541 1.292 2.507 0 .967-.58 1.411-1.292.993M299.072 54.555L285.64 47.13c-.71-.392-1.284-1.444-1.284-2.35 0-.905.575-1.321 1.284-.93l13.432 7.427c.71.392 1.284 1.443 1.284 2.35 0 .905-.575 1.32-1.284.928"/>
        <path fill="#C73D6B" d="M307.141 59.547l-3.569-2.21c-.672-.416-1.216-1.531-1.216-2.491 0-.96.544-1.402 1.216-.986l3.57 2.21c.672.416 1.214 1.531 1.214 2.491 0 .96-.542 1.402-1.215.986"/>
        <path fill="#8F8FA9" d="M324.571 62.703c-.159 0-.332-.051-.516-.16l-17.699-10.456 3.675-1.384 14.024 8.287c.72.424 1.301 1.565 1.301 2.546 0 .73-.323 1.167-.785 1.167"/>
        <path fill="#D66E90" d="M309.765 69.703l-19.409-11.642 3.552-1.358 19.448 11.664-3.591 1.336"/>
        <path fill="#8F8FA9" d="M293.564 67.703c-.16 0-.335-.047-.52-.147l-6.375-3.437c-.725-.391-1.313-1.44-1.313-2.342 0-.672.326-1.074.791-1.074.16 0 .336.047.522.147l6.374 3.437c.725.391 1.313 1.44 1.313 2.342 0 .672-.326 1.074-.792 1.074M285.567 72.703c-.159 0-.334-.046-.519-.145l-8.385-4.481c-.722-.387-1.307-1.422-1.307-2.314 0-.663.325-1.06.788-1.06.16 0 .335.047.52.146l8.384 4.481c.722.386 1.308 1.422 1.308 2.313 0 .664-.325 1.06-.789 1.06"/>
        <path fill="#D66E90" d="M282.606 79.703l-5.934-3.38c-.727-.415-1.316-1.526-1.316-2.482 0-.712.327-1.138.793-1.138.16 0 .337.05.523.156l9.684 5.517-3.75 1.327"/>
        <path fill="#8F8FA9" d="M292.014 76.703l-.485-.315c-.648-.422-1.173-1.553-1.173-2.526 0-.725.291-1.159.707-1.159.143 0 .3.052.466.159l3.827 2.49-3.342 1.351M301.626 72.703l-.96-.528c-.724-.397-1.31-1.463-1.31-2.38 0-.683.325-1.092.79-1.092.159 0 .335.048.52.15l4.69 2.577-3.73 1.273M299.651 54.875c-.094 0-.193-.012-.295-.038l1-.306a.846.846 0 0 1-.705.344"/>
        <path fill="#D66E90" d="M307.624 59.703a.923.923 0 0 1-.483-.156l-3.569-2.21c-.672-.416-1.216-1.531-1.216-2.491 0-.716.302-1.143.733-1.143.148 0 .312.05.483.157l3.57 2.21c.672.416 1.214 1.531 1.214 2.491 0 .715-.301 1.142-.732 1.142"/>
        <path fill="#8F8FA9" d="M302.766 49.703l-10.41-5.781 3.567-1.219 10.433 5.795-3.59 1.205"/>
        <path fill="#D66E90" d="M285.99 55.703l-.465-.305c-.645-.422-1.169-1.557-1.169-2.533 0-.727.29-1.162.705-1.162.142 0 .299.051.464.16l3.831 2.509-3.365 1.331"/>
        <path fill="#8F8FA9" d="M295.663 52.703l-9.56-5.185c-.279-.152-.537-.402-.747-.705l3.325-1.11 10.675 5.79-3.693 1.21"/>
        <path fill="#F6FBFC" d="M188.32 96.703c-.843 0-1.921-.318-3.303-1.137-6.26-3.712-5.644-11.86-5.644-11.86s.034-.003.1-.003c.734 0 5.406.274 11.88 6.839l.003.082-.03 2.097s-.03 3.982-3.006 3.982"/>
        <path fill="#442F44" d="M179.874 83.788s4.743-.008 11.53 6.406l-.037 1.828s-.068 5.513-6.09 2.052c-6.022-3.463-5.403-10.286-5.403-10.286zm5.231 11.382c8.094 4.653 8.185-2.77 8.185-2.77l.066.034-.116-2.533c-8.868-8.277-14.784-8.198-14.784-8.198s-1.445 8.814 6.65 13.467z"/>
        <path fill="#442F44" d="M196.356 93.703l-4.873-2.357-.127-2.643 4.873 2.357.127 2.643M178.417 83.613l-1.007-.475c-.55-.258-1.02-.993-1.052-1.64-.032-.648.387-.963.937-.704l1.007.474c.55.259 1.02.993 1.052 1.64.032.648-.387.963-.937.705M209.417 99.613l-1.007-.474c-.55-.26-1.02-.994-1.052-1.642-.032-.647.387-.962.936-.703l1.008.474c.55.259 1.02.993 1.052 1.641.032.647-.387.962-.937.704"/>
        <path fill="#F6FBFC" d="M204.483 104.703c-.572 0-1.253-.151-2.065-.5-6.187-2.659-6.833-9.287-6.833-9.287l-.229-2.213c6.712.011 11.869 5.354 11.869 5.354s1.042 6.647-2.742 6.646"/>
        <path fill="#442F44" d="M203.065 103.613c-5.97-2.702-6.554-8.657-6.554-8.657l-.208-1.99c6.495.364 11.451 5.41 11.451 5.41s1.281 7.938-4.69 5.237zm5.977-5.956s-6.189-6.367-14.686-6.954l.115 2.58.065.034s.785 8.017 8.81 11.648c8.024 3.63 5.696-7.308 5.696-7.308z"/>
        <path fill="#FFFEFE" d="M197.508 96.377c-.16-.296-.2-.661-.09-.814l1.295-1.792c.11-.154.33-.038.491.258.16.297.2.661.09.815l-1.295 1.791c-.11.154-.33.038-.491-.258M180.508 87.377c-.16-.296-.2-.661-.089-.814l1.294-1.792c.11-.154.33-.038.49.258.161.297.201.661.09.815L181 87.635c-.11.154-.33.038-.49-.258"/>
        <path fill="#EFA37E" d="M168.376 128.836l4.001-22.133 13.979 8.4-3.184 20.13c-.252 3.258-15.44 1.09-14.796-6.397"/>
        <path fill="#EFA37E" d="M178.614 75.695s-13.03-9.127-14.203 11.696c-.815 14.486 7.54 27.506 19.396 33.787 7.383 3.912 16.855-.122 17.633-7.315 2.332-10.431 2.855-20.269-.244-28.92.938-8.673-5.332-5.893-15.87-7l-6.712-2.248"/>
        <path fill="#3A271D" d="M170.668 118.24c-.952-1.084-1.956-2.122-3.197-2.844-4.339-2.523-12.653-9.424-10.868-24.659 2.59-22.098 21.727-17.762 33.787-19.657 4.912-.771 8.438-.77 13.269 4.076 4.393 4.408-.384 13.555-7.014 13.817-2.63.104-1.791 7.328-2.443 9.757-1.16 4.32-3.945 6.317-5.15 10.502-1.139 3.959-7.32 9.53-11.076 10.186-4.45.778-6.429-.176-7.308-1.178"/>
        <path fill="#442F44" d="M209.206 100.933l-18.593.77c-.661.026-1.226-.453-1.256-1.066-.03-.613.487-1.137 1.149-1.164l18.593-.769c.661-.027 1.226.452 1.256 1.065.03.613-.488 1.137-1.149 1.164"/>
        <path fill="#EFA37E" d="M193.35 105.042c.12 3.589-1.794 6.57-4.277 6.66a3.185 3.185 0 0 1-.799-.074c-2.121-.467-3.806-3.067-3.913-6.264-.12-3.589 1.795-6.57 4.278-6.659 2.482-.089 4.592 2.748 4.712 6.337"/>
        <path fill="#6A678D" d="M192.356 137.703c-15.203-3.079-26.665 6.206-28-16.381 2.402-1.3 5.238-.48 6.517 1.79 2.245 3.983 7.628 6.692 13.94 6.22 1.889-.141 3.63.811 4.478 2.451l3.065 5.92"/>
        <path fill="#CC3D6C" d="M317.696 212.631l-29.071-16.838a.54.54 0 0 1 0-.934l39.855-23.084a.538.538 0 0 1 .538 0l29.067 16.838a.537.537 0 0 1 0 .934l-39.851 23.084a.538.538 0 0 1-.538 0"/>
        <path fill="#CC3D6C" d="M288.356 195.703h1v-1h-1zM357.356 189.703h1v-1h-1z"/>
        <path fill="#DE4371" d="M317.696 211.631l-29.071-16.838a.54.54 0 0 1 0-.934l39.855-23.084a.538.538 0 0 1 .538 0l29.067 16.838a.538.538 0 0 1 0 .934l-39.851 23.084a.538.538 0 0 1-.538 0"/>
        <path fill="#CC3D6C" d="M345.695 229.63l-29.071-16.837a.54.54 0 0 1 0-.934l39.855-23.083a.535.535 0 0 1 .538 0l29.071 16.837a.54.54 0 0 1 0 .934l-39.855 23.084a.535.535 0 0 1-.538 0"/>
        <path fill="#CC3D6C" d="M317.356 212.703h1v-1h-1zM385.356 204.947h1v-.487h-1z"/>
        <path fill="#DE4371" d="M345.695 228.631l-29.071-16.838a.54.54 0 0 1 0-.934l39.855-23.083a.535.535 0 0 1 .538 0l29.071 16.837a.54.54 0 0 1 0 .934l-39.855 23.084a.538.538 0 0 1-.538 0"/>
        <path fill="#CC3D6C" d="M298.356 197.723l18.67 11.98 11.33-8.969s-21.996-8.914-30-3.011"/>
        <g transform="translate(291.356 187.703)">
            <mask id="f" fill="#fff">
                <use xlink:href="#e"/>
            </mask>
            <path d="M26.48 21.84c-1.334-4.929-9.166-7.475-19.078-11.626C5.169 9.28 2.83 8.264.437 7.12c-.417-.235-.364-.65.117-.923l4-2.26a.78.78 0 0 0 .043.034c11.608 7.233 23.07 10.827 21.882 17.869L63.521.682c.01-.07.015-.139.02-.209.01.14.01.278.005.418L26.479 21.84" mask="url(#f)"/>
        </g>
        <g transform="translate(294.356 169.703)">
            <mask id="h" fill="#fff">
                <use xlink:href="#g"/>
            </mask>
            <path d="M22.537 39.837C23.722 32.655 12.278 28.989.687 21.61a.781.781 0 0 1-.042-.035c-.319-.278-.227-.705.218-.971L34.971.256c.234-.139.522-.208.795-.208s.536.069.717.206C49.298 5.372 57.79 11.01 59.307 16.13c.19.647.269 1.286.234 1.913a3.13 3.13 0 0 1-.019.214l-36.985 21.58M9.965 21.998a.728.728 0 0 0-.328.074c-.194.1-.222.265-.063.367l12.504 7.997c.078.05.19.077.307.077a.74.74 0 0 0 .332-.075c.19-.1.22-.264.059-.366l-12.5-7.997a.585.585 0 0 0-.31-.077m4.102-2.65a.74.74 0 0 0-.331.074c-.19.1-.22.264-.064.366l12.503 7.997a.605.605 0 0 0 .312.077.719.719 0 0 0 .327-.074c.195-.1.224-.265.063-.366l-12.502-7.998a.575.575 0 0 0-.308-.077m4.103-2.65a.74.74 0 0 0-.332.075c-.195.1-.22.264-.063.366l12.502 7.997a.605.605 0 0 0 .312.077c.112 0 .23-.025.327-.074.195-.1.224-.265.063-.366l-12.502-7.998a.587.587 0 0 0-.307-.077m4.195-3.662a.719.719 0 0 0-.327.075c-.195.1-.224.264-.063.366l12.502 7.997c.078.051.19.077.307.077a.739.739 0 0 0 .332-.074c.19-.1.22-.265.059-.367l-12.498-7.997a.605.605 0 0 0-.312-.077m4.102-2.65a.74.74 0 0 0-.331.075c-.19.1-.22.263-.059.365l12.502 7.997a.57.57 0 0 0 .308.078.704.704 0 0 0 .327-.075c.195-.1.224-.264.063-.366l-12.502-7.997a.575.575 0 0 0-.308-.077m4.103-2.65a.74.74 0 0 0-.332.074c-.195.1-.22.264-.063.366l12.502 7.997a.6.6 0 0 0 .312.077.718.718 0 0 0 .327-.074c.195-.1.224-.264.063-.366L30.878 7.812a.575.575 0 0 0-.307-.077m4.097-2.65a.733.733 0 0 0-.327.074c-.195.1-.219.264-.063.366l12.502 7.997a.6.6 0 0 0 .313.077.74.74 0 0 0 .327-.074c.195-.1.224-.265.063-.366L34.98 5.16a.605.605 0 0 0-.312-.077m4.103-2.65a.719.719 0 0 0-.327.075c-.195.1-.224.264-.064.366l12.503 7.997a.57.57 0 0 0 .307.077.74.74 0 0 0 .332-.075c.195-.1.22-.264.063-.366L39.083 2.511a.605.605 0 0 0-.312-.077" mask="url(#h)"/>
        </g>
        <g transform="translate(332.356 171.703)">
            <mask id="j" fill="#fff">
                <use xlink:href="#i"/>
            </mask>
            <path d="M13.47 8.737a.61.61 0 0 1-.315-.075L.34.897C.175.797.205.639.405.54A.77.77 0 0 1 .74.47c.12 0 .235.025.32.075l12.815 7.765c.16.1.135.259-.065.356a.793.793 0 0 1-.34.072" mask="url(#j)"/>
        </g>
        <g transform="translate(328.356 174.703)">
            <mask id="l" fill="#fff">
                <use xlink:href="#k"/>
            </mask>
            <path d="M13.27 8.939a.615.615 0 0 1-.32-.079L.135.663C-.025.558 0 .39.2.288.3.237.42.212.535.212a.62.62 0 0 1 .32.078L13.67 8.489c.165.104.135.272-.065.375-.1.05-.22.076-.335.076" mask="url(#l)"/>
        </g>
        <g transform="translate(324.356 177.703)">
            <mask id="n" fill="#fff">
                <use xlink:href="#m"/>
            </mask>
            <path d="M13.097 8.674a.603.603 0 0 1-.309-.075L.415.833C.261.734.285.576.478.478A.743.743 0 0 1 .806.405c.116 0 .227.026.304.075l12.373 7.766c.16.099.13.258-.062.356a.722.722 0 0 1-.324.072" mask="url(#n)"/>
        </g>
        <g transform="translate(320.356 179.703)">
            <mask id="p" fill="#fff">
                <use xlink:href="#o"/>
            </mask>
            <path d="M13.36 8.872a.584.584 0 0 1-.315-.079L.23.596C.065.492.095.324.29.221.39.17.51.144.63.144c.12 0 .235.027.315.08L13.76 8.42c.165.104.135.272-.065.375a.721.721 0 0 1-.335.076" mask="url(#p)"/>
        </g>
        <g transform="translate(316.356 182.703)">
            <mask id="r" fill="#fff">
                <use xlink:href="#q"/>
            </mask>
            <path d="M13.184 8.61a.577.577 0 0 1-.304-.074L.507.77C.347.67.377.512.57.414A.722.722 0 0 1 .893.342c.116 0 .227.025.31.075L13.57 8.182c.16.1.13.259-.058.356a.743.743 0 0 1-.328.072" mask="url(#r)"/>
        </g>
        <g transform="translate(312.356 186.703)">
            <mask id="t" fill="#fff">
                <use xlink:href="#s"/>
            </mask>
            <path d="M13.355 8.842a.62.62 0 0 1-.32-.079L.22.567C.06.462.085.294.285.191c.1-.051.22-.076.34-.076C.74.115.86.14.94.194L13.755 8.39c.165.104.135.272-.065.375a.752.752 0 0 1-.335.076" mask="url(#t)"/>
        </g>
        <g transform="translate(308.356 188.703)">
            <mask id="v" fill="#fff">
                <use xlink:href="#u"/>
            </mask>
            <path d="M13.18 8.582a.608.608 0 0 1-.31-.075L.497.742C.343.642.372.484.56.386A.743.743 0 0 1 .888.314c.116 0 .227.025.304.074l12.374 7.766c.159.099.13.258-.063.356a.722.722 0 0 1-.324.072" mask="url(#v)"/>
        </g>
        <g transform="translate(304.356 191.703)">
            <mask id="x" fill="#fff">
                <use xlink:href="#w"/>
            </mask>
            <path d="M13.445 8.775a.589.589 0 0 1-.315-.079L.313.5C.15.395.179.227.378.124A.746.746 0 0 1 .715.048a.6.6 0 0 1 .317.079l12.813 8.197c.165.104.135.272-.06.375a.758.758 0 0 1-.34.076" mask="url(#x)"/>
        </g>
        <path fill="#CC3D6C" d="M317.356 209.97l15 7.733s-10.567-13.03-15-7.733"/>
        <path fill="#FFFFFE" d="M317.356 209.366s3.567-1.337 6.445 1.06c2.88 2.396 21.24 16.277 21.24 16.277l37.315-21.47s-19.941-19.465-27.982-17.372l-37.018 21.505"/>
        <path fill="#CECED7" d="M370.88 200.703a.579.579 0 0 1-.32-.086l-12.106-8.471c-.153-.108-.124-.276.068-.374a.702.702 0 0 1 .311-.069c.12 0 .235.03.317.087l12.11 8.471c.153.108.12.275-.072.374a.696.696 0 0 1-.307.068M366.88 202.703a.579.579 0 0 1-.32-.086l-12.106-8.471c-.153-.109-.125-.276.072-.374a.667.667 0 0 1 .307-.069c.12 0 .235.03.316.087l12.11 8.471c.154.108.12.275-.071.374a.696.696 0 0 1-.307.068M362.88 205.703a.563.563 0 0 1-.317-.086l-12.11-8.472c-.154-.108-.12-.275.071-.373a.681.681 0 0 1 .307-.069c.12 0 .24.03.321.087l12.106 8.47c.153.109.125.276-.072.374a.667.667 0 0 1-.307.07M358.884 208.703a.568.568 0 0 1-.321-.086l-12.11-8.472c-.154-.108-.12-.275.071-.373a.696.696 0 0 1 .307-.069c.12 0 .24.03.321.087l12.106 8.47c.153.109.124.276-.067.374a.696.696 0 0 1-.307.07M354.884 210.703a.568.568 0 0 1-.322-.086l-12.106-8.472c-.158-.107-.124-.275.068-.373a.696.696 0 0 1 .306-.069c.12 0 .24.03.322.087l12.106 8.472c.153.107.124.274-.067.373a.696.696 0 0 1-.307.068M349.88 214.703a.562.562 0 0 1-.317-.086l-12.11-8.472c-.154-.108-.12-.275.071-.373a.696.696 0 0 1 .307-.069c.12 0 .24.03.321.086l12.106 8.472c.153.108.125.275-.072.373a.667.667 0 0 1-.307.07M345.884 216.703a.564.564 0 0 1-.321-.086l-12.11-8.472c-.154-.108-.12-.275.071-.373a.69.69 0 0 1 .307-.069c.12 0 .24.03.321.086l12.106 8.472c.153.108.124.275-.067.373a.696.696 0 0 1-.307.07M341.884 219.703a.564.564 0 0 1-.322-.086l-12.106-8.472c-.158-.108-.124-.275.068-.373a.69.69 0 0 1 .306-.069c.12 0 .24.03.322.086l12.106 8.472c.153.108.124.275-.067.373a.696.696 0 0 1-.307.07"/>
        <path fill="#6C6CA3" d="M367.354 193.173c-4.245 3.881-15.747 13.147-21.854 17.98-.29.23-.11.703.257.675l4.554-.36c.261-.02.46.236.377.492l-1.015 3.245c-.107.344.275.638.56.428 2.544-1.86 9.51-9.632 19.582-19.758.827-.83.686-2.235-.285-2.877a1.766 1.766 0 0 0-2.176.175"/>
        <path fill="#A4BDD7" d="M253.228 86.102l84.829 50.347c.592.353 1.364.337 2.014-.042l6.126-3.556c1.408-.817 1.568-2.787.287-3.547l-84.829-50.348c-.594-.352-1.362-.336-2.015.043l-6.126 3.557c-1.408.816-1.566 2.787-.286 3.546"/>
        <path fill="#B5BDCF" d="M167.356 53.196c.756-.264 1.206-.729 1.192-1.288l-.132.01c-.424 0-.782-.211-.782-.602 0-.38.372-.613.808-.613.57 0 .914.391.914 1.025 0 .908-.662 1.616-1.735 1.975l-.265-.507"/>
    </g>
</svg>
