<svg xmlns="http://www.w3.org/2000/svg" width="530" height="427" viewBox="0 0 530 427">
    <g fill="none" fill-rule="evenodd">
        <path fill="#FFF" d="M483.344 82.844c99.46 39.123 26.358 216.043-117.765 315.044-144.124 99-159.666-84.882-185.947-164.624C153.352 153.523 2.285 204.152.828 162.17c-1.456-41.982 16.055-34.859 93.645-87.324 77.589-52.466 289.412-31.125 388.871 7.999z" opacity=".608"/>
        <path fill="#D2E6EF" d="M422.147 279L321.35 220.8c34.978-.49 68.753-4.958 99.204-13.538l51.2 30.487c4.285 2.548 4.338 8.737.095 11.358L422.147 279M315.94 217.673L305 211.357 324.369 150l92.406 55.015c-30.936 8.39-65.302 12.582-100.836 12.658"/>
        <path fill="#B6D4E5" d="M321.38 221l-5.38-3.17c35.326-.076 69.49-4.325 100.244-12.83l3.756 2.278c-30.271 8.697-63.848 13.226-98.62 13.722"/>
        <path fill="#8780B0" d="M326.688 256L431 195.812 327.34 136 222 196.063 326.688 256"/>
        <path fill="#545493" d="M327.157 256.281L327 333l104-60.28V196l-103.843 60.281"/>
        <path fill="#625E9A" d="M327.163 256.028L222 196v73.092L329 333l-1.837-76.972"/>
        <path fill="#F9CA4B" d="M157 45.648L180.296 95 220 69.35 196.705 20 157 45.648"/>
        <path fill="#FFFFFE" d="M175.828 72.056l6.253-3.875.162-.119 8.688-5.384.199-.1 5.462-3.385c.777-.481 1.768-.032 2.204 1 .434 1.032.153 2.27-.624 2.752l-8.69 5.384-.196.098-3.028 1.876-.162.12-8.688 5.384c-.778.481-1.769.032-2.204-1-.434-1.031-.153-2.269.624-2.75"/>
        <path fill="#FFFFFE" d="M185.828 66.055l6.253-3.874.161-.119 8.69-5.385.197-.098 5.463-3.386c.778-.481 1.769-.032 2.203 1 .435 1.031.155 2.269-.623 2.75l-8.688 5.386-.199.098-3.026 1.876-.162.12-8.689 5.384c-.778.481-1.769.032-2.203-1-.435-1.032-.155-2.27.623-2.752M179.828 80.056l6.253-3.875.162-.119 8.69-5.384.197-.098 5.462-3.387c.778-.482 1.769-.031 2.204 1 .434 1.032.153 2.27-.624 2.752l-8.69 5.384-.196.1-3.028 1.874-.16.12-8.69 5.384c-.777.481-1.769.032-2.204-1-.434-1.031-.153-2.269.624-2.75"/>
        <path fill="#BACFE1" d="M326.243 60.858c-6.28 12.455-16.483 37.234-29.85 41.958-18.494 6.533-37.805-15.583-52.62-26.69-6.635-4.975-.128-16.267 6.597-11.226 11.993 8.992 27.176 16.881 42.366 11.24 10.153-3.772 17.484-12.443 22.22-21.843 3.769-7.48 15.047-.906 11.287 6.561"/>
        <path fill="#F3BDAA" d="M242.58 72.09l-5.607-3.453c-2.914-1.794-3.848-5.677-2.075-8.627 1.773-2.95 5.608-3.896 8.522-2.1l5.607 3.453c2.914 1.795 3.847 5.677 2.075 8.627-1.773 2.95-5.607 3.895-8.522 2.1"/>
        <path fill="#27366B" d="M270.227 31.738s3.562-5.175 9.138-6.457l.11 1.783s.361 5.328-4.421 8.59c-4.782 3.263-4.827-3.916-4.827-3.916zm4.78 5.148c6.427-4.385 5.941-11.559 5.941-11.559l.052-.039-.277-2.288c-7.278 1.775-11.717 8.297-11.717 8.297s-.425 9.974 6.001 5.589z"/>
        <path fill="#0059C2" d="M238.1 167.652c1.886-17.74 9.097-30.081 29.979-31.63 1.313-.097 2.633.129 3.864.597l72.848 21.706s15.916 39.572-23.14 51.557c-19.772 6.066-58.156-14.008-75.611-25.423-5.59-3.654-8.646-10.16-7.94-16.807"/>
        <path fill="#F3BDAA" d="M279.583 40.51c5.26 9.961 17.376 11.39 22.563 3.05 5.189-8.34 5.13-23.175-.13-33.137-5.26-9.961-13.73-11.275-18.919-2.936-5.188 8.34-8.774 23.061-3.514 33.023"/>
        <path fill="#F3BDAA" d="M311.67 66.236l1.078-.496c3.641-1.677 5.26-6.056 3.599-9.73l-9.374-20.72c-1.661-3.674-6.002-5.307-9.643-3.63l-1.078.496c-3.641 1.677-5.26 6.057-3.598 9.731l6.105 21.244c1.663 3.675 9.269 4.783 12.91 3.105"/>
        <path fill="#4C5493" d="M314.542 35.082s2.87 7.172-9.79 10.646c-10.13 2.78-11.01-16.7-21.524-16.197-11.564.553-16.516-13.035-13.234-19.366 3.282-6.33 15.007-11.793 24.756-9.717 9.751 2.074 29.08.959 19.792 34.634"/>
        <path fill="#BACFE1" d="M344 158.097c-1.68-17.105-8.365-17.604-6.685-39.939.45-5.96.608-11.945.545-17.923-.356-32.607-3.001-54.75-21.396-49.452l-5.793 1.541a39.995 39.995 0 0 0-8.042 3.11c-27.101 13.983-40.645 14.532-35.583 44.528 1.09 29.712 14.583 23.312 8.927 52.832 0 35.36 68.058 27.39 68.027 5.303"/>
        <path fill="#8EADCF" d="M272 122.57L286.667 90c1.138 18.647-.365 35.357-8.784 47L272 122.57"/>
        <path fill="#E6947B" d="M294.373 48.714L295 46s-1.724 2.324-6 2.629c0 0 2.755.775 5.373.085"/>
        <path fill="#4C5493" d="M293 35.512s6.87 7.268 7.872 16.295c1.24 11.163 8.357 17.997 17.728 11.92 4.662-3.017 8.696-6.415 8.383-9.789C324.39 25.238 315.02 9 315.02 9L293 35.512"/>
        <path fill="#BACFE1" d="M286 84.268s-3.315 68.468-39.584 46.322c-22.655-13.832-20.35-53.677-20.35-53.677l9.992-1.56s10.921 42.969 22.383 36.579c11.461-6.39 8.586-37.3 14.251-39.668C278.357 69.894 286 84.268 286 84.268"/>
        <path fill="#F3BDAA" d="M233.099 84.68c3.007-1.055 4.622-4.432 3.588-7.504l-4.438-13.191c-1.033-3.072-4.34-4.722-7.348-3.665-3.007 1.055-4.622 4.431-3.588 7.503l4.438 13.192c1.033 3.072 4.34 4.721 7.348 3.666"/>
        <path fill="#9BC1DD" d="M233.792 84l14.352-10.583c.855-.617 1.113-1.99.575-3.068l-14.066-28.216c-.539-1.078-1.668-1.453-2.522-.836L217.855 51.59c-.855.616-1.111 1.99-.574 3.068l14 28.083c.353.709.716.798 1.445.973l1.066.285"/>
        <path fill="#9BC1DD" d="M231.76 55.27s16.754 15.741 16.228 14.679L234.21 41.157l-1.317-.133a1.463 1.463 0 0 0-1.14.269l-13.969 10.153c-.408.297-.678.772-.785 1.303l14.76 2.522"/>
        <path fill="#27366B" d="M234.897 83.705l14.276-10.289c.858-.616 1.071-1.984.532-3.062l-14.112-28.22c-.54-1.077-1.648-1.454-2.506-.838L218.82 51.583c-.858.616-1.062 1.983-.521 3.061l14.112 28.219c.539 1.077 1.628 1.458 2.486.842"/>
        <path fill="#3F3E5B" d="M219.353 57.283l.63 1.57c.045.108-.005.17-.114.139l.016-.018c-.107-.031-.185-.154-.228-.264l-.632-1.568c-.043-.11-.037-.165.071-.133l.006.013c.108.033.208.153.251.261M220.353 60.283l.63 1.57c.045.108-.005.17-.114.139l.016-.018c-.107-.031-.185-.154-.228-.264l-.632-1.568c-.043-.11-.037-.165.071-.133l.006.013c.108.033.208.153.251.261"/>
        <path fill="#DBECF3" d="M233.122 78.98L247 68.88 234.793 44 221 54.04l12.328 24.225c.104.209-.395.854-.206.716"/>
        <path fill="#FFFFFE" d="M224.501 49.946l4.346-3.183c.153-.112.199-.362.103-.557-.095-.196-.3-.264-.451-.152l-4.346 3.182c-.153.111-.199.362-.103.558.095.196.298.264.451.152"/>
        <path fill="#27366B" d="M269.202 32.986l15.917-2.716c.566-.096.957-.683.868-1.304-.087-.62-.623-1.05-1.189-.952l-15.917 2.716c-.566.096-.957.683-.868 1.304.087.62.623 1.05 1.189.952"/>
        <path fill="#F3BDAA" d="M284.585 35.345a5 5 0 1 0 8.83-4.69 5 5 0 0 0-8.83 4.69"/>
        <path fill="#2E3D6E" d="M227.773 60.68c-1.247-2.13-.59-5.053 1.468-6.534 2.059-1.48 4.738-.954 5.986 1.174 1.247 2.129.59 5.054-1.469 6.533-2.058 1.48-4.737.955-5.985-1.174zm-1.83 1.316c1.86 3.174 5.856 3.957 8.925 1.75 3.07-2.207 4.05-6.568 2.19-9.742-1.86-3.173-5.856-3.958-8.926-1.75-3.07 2.206-4.05 6.569-2.19 9.742z"/>
        <path fill="#E15789" d="M225.909 62.805c-1.1-2.067-1.17-4.607-.38-6.805l1.875.887c-.51 1.464-.457 3.145.272 4.517.997 1.875 2.941 2.579 4.71 1.874l.614 2.293c-2.654 1.099-5.592.054-7.091-2.766"/>
        <path fill="#FFFFFE" d="M233 51.052l-.328 2.446c-.986-.15-2.041.12-2.967.856-.837.668-1.433 1.61-1.753 2.646L226 56.35c.47-1.573 1.368-3.006 2.636-4.014 1.361-1.084 2.912-1.49 4.364-1.284M234.425 69.865l6.192-4.096c.407-.269.505-.857.22-1.307-.288-.449-.855-.597-1.262-.327l-6.192 4.096c-.407.268-.505.857-.22 1.306.288.45.855.598 1.262.328M236.425 72.865l6.193-4.095c.406-.27.505-.858.218-1.307-.286-.45-.853-.597-1.26-.329l-6.193 4.096c-.407.27-.506.857-.219 1.307.287.45.854.598 1.261.328"/>
        <path fill="#F3BDAA" d="M227.777 79.968l-1.693-3.556c1.362-.037 2.947 5.57 2.916 4.436l-.052-15.85c-.032-1.136-1.17-2.034-2.53-1.997-1.36.037-2.449.997-2.417 2.131l.216 7.828c.03 1.136 2.2 7.046 3.56 7.008"/>
        <path fill="#D2E6EF" d="M425.89 59l-.36-.23c.148-1.545.222-3.098.222-4.658 0-10.088-3.05-20.397-9.013-30.444L428.125 18l27.91 16.345c2.595 1.523 2.627 5.222.053 6.788L425.89 59m-3.39-2.19L391 36.483l22.9-11.4c5.783 9.695 8.675 19.519 8.675 29.029 0 .902-.032 1.802-.074 2.698"/>
        <path fill="#B6D4E5" d="M425.775 59l-3.067-1.955c.043-.893.075-1.79.075-2.69 0-9.482-2.928-19.278-8.783-28.944L416.874 24C422.912 34.017 426 44.296 426 54.355c0 1.555-.075 3.104-.225 4.645"/>
        <path fill="#FBD97B" d="M410.053 34L439 17.448 410.231 1 381 17.517 410.053 34"/>
        <path fill="#EAB64D" d="M410.042 34.718l-.042-.024V68l29-16.743V18l-28.958 16.718"/>
        <path fill="#F9CA4B" d="M410.487 34.664L381 18v32.258L411 68V34.371l-.513.293"/>
        <path fill="#FFFFFE" d="M411.552 26L396 16.972 411.458 8 427 17.029 411.552 26M344 308l21-12.242V280l-21 12.241V308M372 292l21-12.185V251l-21 12.186V292M421 264.877L400 277v-47.877L421 217v47.877"/>
    </g>
</svg>
