<svg xmlns="http://www.w3.org/2000/svg" xmlns:xlink="http://www.w3.org/1999/xlink" width="516" height="523" viewBox="0 0 516 523">
    <defs>
        <path id="a" d="M50.119 10.299C49.043 6.855 47.814 3.443 46.665.015c-.82.45-1.578.874-2.186 1.142l-8.422 3.722-16.564 7.318c-4.212 1.862-8.574 3.831-11.561 7.336-3.206 3.764-4.406 8.804-5.27 13.672A154.549 154.549 0 0 0 .598 50.456c-.414 6.606-.202 13.84 3.995 18.957 3.887 4.738 10.563 6.56 16.636 5.737 6.073-.822 11.611-3.943 16.485-7.66 4.873-3.716 9.231-8.065 14.045-11.857 1.239-.977 2.511-1.918 3.768-2.875a122.808 122.808 0 0 0-5.408-42.459"/>
    </defs>
    <g fill="none" fill-rule="evenodd">
        <path fill="#FFF" d="M462.93 205.217c105.389 41.426 44.3 182.995-108.467 287.953-152.767 104.957-178.818-97.228-206.642-181.721C119.997 226.956 2.067 246.209.538 201.721c-1.53-44.489 17.025-36.946 99.267-92.569 82.242-55.623 257.738 54.64 363.126 96.065z" opacity=".608"/>
        <path fill="#D0DFFF" d="M304.274 425.741l89.816-51.855 64.536 37.26-89.816 51.855-64.536-37.26M209.682 288.265l131.889 76.282c2.333 1.35 6.119 1.351 8.455.004l15.394-8.878c2.334-1.346 2.337-3.53.005-4.879l-131.889-76.283c-2.333-1.349-6.118-1.35-8.454-.004l-15.394 8.878c-2.335 1.347-2.338 3.532-.006 4.88"/>
        <path fill="#2B77CD" d="M224.671 6.633l9.806-5.677c2.442-1.468 5.849-1.299 9.624.88l98.487 56.86c7.437 4.294 13.467 14.738 13.467 23.326v257.262c0 4.336-1.54 7.364-4.019 8.754.006.002-10.662 6.113-10.662 6.113l1.923-6.724c-.237-.122-.47-.229-.709-.368l-98.487-56.86c-7.437-4.294-13.467-14.737-13.467-23.325V9.611c0-.365.025-.708.047-1.054l-6.01-1.924"/>
        <path fill="#041E6B" d="M233.459 296.296l98.486 56.86c7.438 4.295 13.467.813 13.467-7.775V88.121c0-8.588-6.029-19.032-13.467-23.326l-98.486-56.86c-7.438-4.294-13.468-.813-13.468 7.775v257.26c0 8.59 6.03 19.032 13.468 23.326"/>
        <path fill="#2B77CD" d="M268.275 43.161l28.854 16.658c.663.383 1.2-.024 1.2-.907v-.885c0-.884-.537-1.91-1.2-2.294l-28.854-16.658c-.663-.383-1.2.024-1.2.908v.884c0 .884.537 1.911 1.2 2.294"/>
        <path fill="#D3E9F6" d="M221.462 250.55l122.48 70.711V97.403l-122.48-70.712V250.55"/>
        <path fill="#4367C7" d="M338.01 122.537L227.393 58.672V37.096l110.617 63.865v21.576"/>
        <path fill="#FDBE01" d="M238.575 54.34c0 2.196-1.541 3.085-3.442 1.988-1.901-1.098-3.442-3.767-3.442-5.963 0-2.195 1.541-3.085 3.442-1.987 1.901 1.098 3.442 3.767 3.442 5.962"/>
        <path fill="#FF65A7" d="M248.19 59.891c0 2.195-1.542 3.085-3.443 1.988-1.901-1.098-3.442-3.768-3.442-5.963 0-2.195 1.541-3.085 3.442-1.987 1.901 1.097 3.443 3.766 3.443 5.962"/>
        <path fill="#92D7FE" d="M257.803 65.441c0 2.196-1.541 3.085-3.442 1.988-1.901-1.098-3.442-3.767-3.442-5.963 0-2.194 1.541-3.085 3.442-1.987 1.901 1.098 3.442 3.767 3.442 5.962"/>
        <path fill="#FFF" d="M338.01 164.51l-110.778-63.96V64.711L338.01 128.67v35.84"/>
        <path fill="#FF65A7" d="M251.091 108.456l-16.68-9.63c-1.157-.669-2.096-2.46-2.096-4.005V76.31c0-1.543.939-2.252 2.096-1.584l16.68 9.631c1.158.668 2.096 2.46 2.096 4.003v18.513c0 1.543-.938 2.253-2.096 1.584"/>
        <path fill="#BED6E0" d="M330.472 135.851l-72.323-41.756v-2.8l72.323 41.756v2.8M330.472 143.636l-72.323-41.756v-2.799l72.323 41.756v2.8M330.472 151.422l-72.323-41.756v-2.8l72.323 41.756v2.8"/>
        <path fill="#FFF" d="M338.01 205.17l-110.778-63.96v-35.84l110.778 63.958v35.841"/>
        <path fill="#556CD2" d="M251.091 149.116l-16.68-9.63c-1.157-.669-2.096-2.462-2.096-4.005V116.97c0-1.544.939-2.253 2.096-1.585l16.68 9.631c1.158.668 2.096 2.461 2.096 4.004v18.512c0 1.544-.938 2.253-2.096 1.585"/>
        <path fill="#BED6E0" d="M330.472 176.51l-72.323-41.756v-2.799l72.323 41.756v2.8M330.472 184.296l-72.323-41.756v-2.8l72.323 41.756v2.8M330.472 192.082l-72.323-41.756v-2.8l72.323 41.756v2.8"/>
        <path fill="#2B77CD" d="M277.79 310.907l9.824 5.672c1.923 1.11 3.482-.068 3.482-2.632v-10.1c0-2.564-1.559-5.543-3.482-6.653l-9.824-5.672c-1.923-1.11-3.482.068-3.482 2.632v10.1c0 2.564 1.559 5.542 3.482 6.653"/>
        <path fill="#D0DFFF" d="M258.468 375.91c-19.401 11.2-50.857 11.2-70.259 0-19.401-11.202-19.402-29.364 0-40.565 19.401-11.202 50.857-11.2 70.258 0 19.402 11.201 19.402 29.363.001 40.564"/>
        <path fill="#FFB385" d="M208.147 169.103c-.443 1.337-1.003 2.771-.527 4.102.517 1.45 2.087 2.277 3.567 2.857a32.9 32.9 0 0 0 12.984 2.24c.24-.008.495-.023.691-.154.237-.157.334-.442.415-.707.652-2.15 1.168-4.348 1.779-6.5.632-2.229 1.849-3.76 3.194-5.62 2.074-2.869 2.923-6.049 2.881-9.574-.02-1.652-.154-3.306-.087-4.959.033-.813.708-2.709-.279-3.248-.255-.14-.571-.057-.845.042-1.88.674-3.502 1.897-5.17 2.994-2.792 1.838-5.777 3.377-8.48 5.35-1.376 1.005-2.684 2.12-3.79 3.421-1.277 1.505-2.496 2.445-4.246 3.445-.983.561-.927 1.031-1.09 2.13a25.007 25.007 0 0 1-.997 4.181"/>
        <path fill="#844B22" d="M234.176 145.473c-.234 4.122-1.062 8.394-2.622 12.235-.174.43-.381.871-.76 1.152-.78.573-2.029.295-2.736.948-.211.197-.344.455-.452.72-.428 1.071-.425 2.253-.519 3.402-.073.93-.194 2.374-.964 3.05-.637.556-2.05.857-2.866 1.062-2.441.606-5.046.52-7.521.113-1.959-.324-3.915-.827-5.652-1.757-4.715-2.529-6.192-7.264-6.004-12.102.006-.137.013-.275.023-.415 0-.037.004-.077.007-.114.094-1.51.288-3.02.656-4.49.01-.034.017-.07.027-.104 1.118-3.734 3.964-7.149 6.985-9.63 4.092-3.363 9.6-5.325 14.86-3.938 3.192.84 5.76 3.154 6.902 6.03a8.873 8.873 0 0 1 .636 3.838"/>
        <path fill="#A95F2D" d="M233.54 141.635l-.154.295c-2.251 4.262-5.133 8.422-9.456 10.782-1.474.807-3.064 1.373-4.661 1.885-4.414 1.413-9.396 2.388-13.545.325a8.225 8.225 0 0 1-1.621-1.04c0-.038.004-.078.007-.115.094-1.51.288-3.02.656-4.49.01-.034.017-.07.027-.104 1.118-3.734 3.964-7.149 6.985-9.63 4.092-3.363 9.6-5.325 14.86-3.938 3.192.84 5.76 3.154 6.902 6.03"/>
        <path fill="#ABACB0" d="M208.697 345.13l-.022.237c-.214 2.184-1.162 3.925-2.355 5.546-1.443 1.955-3.257 3.717-4.598 5.835-.733 1.148-1.406 2.354-2.384 3.302-1.392 1.356-3.465 1.726-5.346 1.652-.748-.03-2.022-.03-3.221-.207-1.311-.2-2.533-.608-2.918-1.496a6.942 6.942 0 0 1-.296-.837c-.318-1.067-.244-2.074.852-2.718.829-.488 1.814-.533 2.762-.54.858-.015 1.718.052 2.576.133a6.354 6.354 0 0 1-.007-1.11c.185-2.237 1.074-4.384 2.325-6.228.555-.815 1.318-1.369 1.829-2.185.563-.887 1.126-1.754 2.007-2.36.622-.424 1.347-.69 2.073-.883a14.257 14.257 0 0 1 4.406-.474c.74.038 1.555.215 1.984.815.318.43.371.985.333 1.518M265.365 357.29c-.451 3.82-3.043 7.173-6.316 9.187-3.28 2.015-7.175 2.815-11.018 2.978-1.955.09-4.235.17-5.383 1.755-.311.421-.511.932-.889 1.295-.444.43-1.074.6-1.673.755l-5.843 1.511c-1.562.407-3.273.8-4.754.141a4.432 4.432 0 0 1-1.273-.845c-2.636-2.384-2.31-7.479-.37-10.07 1.14-1.533 2.695-2.702 4.243-3.814 1.488-1.08 3.013-2.132 4.694-2.88 3.962-1.769 8.456-1.725 12.796-1.65 5.271.096 10.617.191 15.705 1.613l.081.023"/>
        <path fill="#0059C2" d="M218.643 270.781c.105 8.488-3.435 16.405-6.296 24.3-2.528 6.978-4.563 14.133-6.594 21.285a759.818 759.818 0 0 0-1.677 5.971c-2.666 9.682-4.978 19.503-5.116 29.597-.037 2.584-.307 5.778-2.715 6.693-.87.328-1.844.264-2.786.174a80.053 80.053 0 0 1-6.452-.854A147.366 147.366 0 0 1 186.73 334a145.401 145.401 0 0 1 3.551-23.407c1.991-8.398 4.728-16.59 6.431-25.06a106.074 106.074 0 0 0 2.061-21.543c0-.16-.003-.32-.003-.485-.023-2.07-1.311-6.827 1.109-7.805 2.419-.975 7.184 1.392 9.481 2.24 1.99.735 4.033 1.505 5.624 2.917 2.748 2.441 3.618 6.333 3.659 9.925"/>
        <path fill="#0059C2" d="M206.104 272.81c-.094 2.856-1.083 5.601-2.062 8.285a99149.615 99149.615 0 0 0-11.957 32.814c-.836 2.292-1.673 4.59-2.334 6.937-.911 3.24-1.482 6.562-2.233 9.84-.112.486-.388 1.748-.788 3.313a145.401 145.401 0 0 1 3.551-23.407c1.991-8.398 4.728-16.59 6.431-25.06a106.074 106.074 0 0 0 2.061-21.543c1.468-.13 3.025.28 4.201 1.18 2.271 1.736 3.223 4.784 3.13 7.64"/>
        <path fill="#003676" d="M218.643 270.781c.105 8.488-3.435 16.405-6.296 24.3-2.528 6.978-4.563 14.133-6.594 21.285a759.818 759.818 0 0 0-1.677 5.971c.919-6.939 2.352-13.788 4.541-20.43 2.192-6.658 5.183-13.418 4.35-20.378-.735-6.128-4.634-11.789-10.101-14.657-.885-.463-2.584-.926-4.093-1.524.004-.616.004-1.228-.003-1.844-.023-2.07-1.311-6.827 1.109-7.805 2.419-.975 7.184 1.392 9.481 2.24 1.99.735 4.033 1.505 5.624 2.917 2.748 2.441 3.618 6.333 3.659 9.925"/>
        <path fill="#0059C2" d="M249.212 356.311l-2.054 4.787c-.754 1.76-1.524 3.54-2.73 5.027-1.949 2.397-4.906 3.805-7.954 4.354-.153.03-.309.056-.463.078-3.207.486-6.434.172-9.627-.41a4292.607 4292.607 0 0 0-1.795-29.983c-1.468-23.089-3.261-46.697-11.174-68.285-.967-2.64-2.024-5.25-3.185-7.827-.243-.538-.489-1.075-.743-1.613 2.162 1.221 5.172.561 7.655.605.743.011 1.486.022 2.23.026 4.936.041 9.903-.097 14.768-.766 3.694-.504 7.324-1.314 10.834-2.588.164.89.309 1.778.433 2.667.183 1.3.325 2.6.433 3.903.19 2.311.272 4.63.272 6.956-.014 13.178-2.736 26.581-3.502 39.756-.198 3.368-.265 6.744-.291 10.12-.086 11.124 1.762 23.323 6.893 33.193"/>
        <path fill="#0059C2" d="M226.933 283.116c-.556 1.71-.418 3.558-.276 5.35l2.532 31.911c1.113 14.055 2.236 28.17 5.411 41.91.631 2.725 1.344 5.443 1.874 8.192-.153.03-.309.056-.463.078-3.207.486-6.434.172-9.627-.41a4292.607 4292.607 0 0 0-1.795-29.983c-1.468-23.089-3.261-46.697-11.174-68.285-.967-2.64-2.024-5.25-3.185-7.827-.243-.538-.489-1.075-.743-1.613 2.162 1.221 5.172.561 7.655.605.743.011 1.486.022 2.23.026 4.936.041 9.903-.097 14.768-.766 3.694-.504 7.324-1.314 10.834-2.588.164.89.309 1.778.433 2.667.183 1.3.325 2.6.433 3.903.19 2.311.272 4.63.272 6.956-2.27 1.345-4.611 2.17-7.741 2.786-4.626.915-9.977 2.606-11.438 7.088"/>
        <path fill="#003676" d="M245.84 266.286a30.865 30.865 0 0 1-9.855 4.111c-2.774.62-5.616.851-8.447 1.083-4.698.384-9.436.77-14.123.4-.967-2.64-2.024-5.25-3.185-7.828.355-.059.71-.108 1.061-.149 2.688-.329 5.381-.606 8.081-.833 4.865-.414 9.742-.668 14.623-.762.049 0 .097 0 .145-.004 3.754-.067 7.514-.045 11.267.08.183 1.298.325 2.598.433 3.902"/>
        <path fill="#FEBD59" d="M185.684 185.313l-11.128 36.841c-.644 2.134-1.265 4.541-.197 6.497.909 1.664 2.791 2.51 4.557 3.2a127.696 127.696 0 0 0 25.326 7.012c-.682-13.169-3.03-26.146-7.285-38.626-2.048-6.005-5.481-12.335-11.273-14.924"/>
        <path fill="#76D3FE" d="M245.558 262.361c-.408.793-1.311.866-2.199 1.133a60.848 60.848 0 0 1-13.566 2.473c-11.121.755-22.429-1.496-32.336-6.715a122.81 122.81 0 0 0-5.338-43.888c-2.555-8.182-5.984-16.172-7.116-24.672-.363-2.74-.415-5.753 1.199-7.997 1.622-2.236 4.51-3.14 7.235-3.584 2.724-.444 5.583-.607 8.019-1.903 6.264 4.82 14.083 7.382 21.888 8.197 1.725.178 3.828-.11 5.479.326 1.526.407 3.184 1.57 4.561 2.414.074.044.148.088.215.133 3.125 1.858 6.101 4.206 7.797 7.501 1.503 2.925 1.844 6.294 2.132 9.574.186 2.066.356 4.132.512 6.197a537.74 537.74 0 0 1 1.377 24.132c.177 5.117.274 10.226.281 15.343 0 2.562-.022 5.116-.059 7.671-.015.903.326 2.881-.081 3.665"/>
        <path fill="#FEBD59" d="M201.459 177.21c2.481-1.325 3.685-2.578 5.074-5.023.223-.392.732-.497 1.11-.25 5.091 3.32 11.47 5.567 17.491 5.884 4.184 1.81 5.727 4.676 7.709 9.987-10.848-1.194-22.624-2.495-31.384-10.598"/>
        <path fill="#FFB385" d="M289.859 145.322a31.641 31.641 0 0 0 5.406-10.263c.397-1.285 1.336-2.412 2.011-3.576.204-.35.413-.72.43-1.125.016-.406-.229-.854-.63-.918-.388-.062-.736.24-.986.542-.482.583-.848 1.251-1.274 1.876-.427.625-.936 1.221-1.609 1.568-.22-1.353.198-2.783.795-4.017.597-1.235 1.34-2.408 1.747-3.718.083-.269.152-.55.113-.83-.04-.279-.21-.555-.477-.646-.226-.076-.482-.006-.679.13-.196.136-.344.33-.48.527-1.551 2.226-2.188 5.02-3.91 7.115-.098-.497-.264-.995-.229-1.5.062-.906.335-1.78.605-2.648l1.169-3.74c.124-.396.249-.808.187-1.219-.061-.41-.369-.815-.783-.843-.295-.02-.576.156-.76.388-.185.232-.288.516-.389.794l-1.82 5.022c-.346.954-.697 1.92-1.276 2.754a2.002 2.002 0 0 1-.397-1.118c-.079-2.274.771-4.487.852-6.76.011-.325.006-.66-.119-.96-.125-.299-.394-.559-.717-.585-.287-.023-.563.141-.746.363-.183.221-.289.494-.388.764-1.469 4.03-1.899 8.367-3.233 12.443-.953-.982-1.86-2.072-2.564-3.244-.203-.338-.401-.69-.705-.94-.304-.25-.747-.377-1.098-.199-.485.247-.559.911-.474 1.45.235 1.486 1.153 2.757 1.937 4.043a25.797 25.797 0 0 1 3.316 8.614c2.36.497 4.768.602 7.175.456"/>
        <path fill="#FFDB59" d="M286.372 188.737c-4.384 13.588-22.947 14.913-36.949 21.044-3.473 1.518-6.665 3.332-9.293 5.701-1.584-4.413-5.435-7.729-7.79-11.788-2.688-4.606-2.576-10.529-1.606-15.772a133.613 133.613 0 0 0 42.798-9.189c2.681-1.059 3.325-4.724 4.177-7.479a82.293 82.293 0 0 0 3.576-26.523c3.228-.688 6.953-.65 10.055.467.06.718.111 1.436.163 2.155.889 13.854-.881 28.204-5.131 41.384"/>
        <path fill="#FEBD59" d="M286.372 188.737c-4.384 13.588-22.947 14.913-36.949 21.044.074-.222.178-.444.296-.645.666-1.125 1.799-1.873 2.925-2.524 4.746-2.74 10.048-4.31 15.128-6.368 5.072-2.05 10.114-4.732 13.468-9.056 2.555-3.303 3.954-7.338 5.036-11.373a90.868 90.868 0 0 0 3.05-20.349c.111-3.13.111-6.375 1.074-9.389.215-.666.578-1.873 1.103-2.724.889 13.854-.881 28.204-5.131 41.384"/>
        <path fill="#58B7E5" d="M245.558 262.361c-.408.793-1.311.866-2.199 1.133a60.848 60.848 0 0 1-13.566 2.473c2.859-7.153 5.302-14.498 5.516-22.147.127-4.36-.481-8.7-.607-13.055-.133-4.353.297-7.2 2.266-11.088 1.37-2.703 4.09-6.54 7.148-7.154a493.762 493.762 0 0 1 1.301 23.16c.177 5.116.274 10.225.281 15.342 0 2.562-.022 5.116-.059 7.671-.015.903.326 2.881-.081 3.665"/>
        <path fill="#1F3C5C" d="M265.365 357.29c-.451 3.82-3.043 7.173-6.316 9.187-3.28 2.015-7.175 2.815-11.018 2.978-1.955.09-4.235.17-5.383 1.755-.311.421-.511.932-.889 1.295-.444.43-1.074.6-1.673.755l-5.843 1.511c-1.562.407-3.273.8-4.754.141a4.432 4.432 0 0 1-1.273-.845c3.502-.444 7.101-.488 10.33-1.873 1.932-.829 3.65-2.118 5.612-2.873 2.125-.815 4.443-.978 6.664-1.466 3.57-.8 6.916-2.495 9.701-4.857a22.974 22.974 0 0 0 3.783-4.118c.296-.415.593-1.162.978-1.614l.081.023M208.697 345.13l-.022.237c-.214 2.184-1.162 3.925-2.355 5.546-1.443 1.955-3.257 3.717-4.598 5.835-.733 1.148-1.406 2.354-2.384 3.302-1.392 1.356-3.465 1.726-5.346 1.652-.748-.03-2.022-.03-3.221-.207-1.311-.2-2.533-.608-2.918-1.496a6.942 6.942 0 0 1-.296-.837c.6.066 1.288.43 1.785.562.888.245 1.784.445 2.703.556 1.977.237 4.057.037 5.797-.933 1.948-1.08 3.266-2.992 4.51-4.836 2.117-3.124 4.228-6.257 6.345-9.38"/>
        <path fill="#FFDB59" d="M245.558 262.361c-.408.793-1.311.866-2.199 1.133a60.848 60.848 0 0 1-13.566 2.473c-11.121.755-22.429-1.496-32.336-6.715a122.81 122.81 0 0 0-5.338-43.888c-2.555-8.182-5.984-16.172-7.116-24.672-.363-2.74-.415-5.753 1.199-7.997 1.622-2.236 4.51-3.14 7.235-3.584 2.724-.444 5.583-.607 8.019-1.903 6.264 4.82 14.083 7.382 21.888 8.197 1.725.178 3.828-.11 5.479.326 1.526.407 3.184 1.57 4.561 2.414.074.044.148.088.215.133 3.125 1.858 6.101 4.206 7.797 7.501 1.503 2.925 1.844 6.294 2.132 9.574.186 2.066.356 4.132.512 6.197a537.74 537.74 0 0 1 1.377 24.132c.177 5.117.274 10.226.281 15.343 0 2.562-.022 5.116-.059 7.671-.015.903.326 2.881-.081 3.665"/>
        <g transform="translate(142 205.065)">
            <mask id="b" fill="#fff">
                <use xlink:href="#a"/>
            </mask>
            <path fill="#BED6E0" d="M122.959-29.9l1.984-.971-1.832-1.239L8.193 24.071 5.726 59.826l1.832 1.24.152-2.21 112.934-55.21 2.315-33.546" mask="url(#b)"/>
            <path fill="#FFF" d="M122.476 4.885L7.558 61.066l2.467-35.754L124.943-30.87l-2.467 35.755" mask="url(#b)"/>
            <path fill="#FFDB59" d="M32.713 43.11l-17.304 8.459c-1.201.587-2.088-.184-1.982-1.724l1.275-18.469c.106-1.539 1.165-3.263 2.366-3.85l17.304-8.46c1.2-.586 2.088.186 1.982 1.725L35.079 39.26c-.106 1.539-1.165 3.263-2.366 3.85" mask="url(#b)"/>
            <path fill="#BED6E0" d="M116.329-15.54L41.303 21.139l.193-2.794 75.026-36.679-.193 2.794M115.793-7.773L40.768 28.905l.192-2.793 75.026-36.678-.193 2.793M115.257-.006L40.232 36.673l.192-2.793L115.45-2.799l-.193 2.793" mask="url(#b)"/>
            <path fill="#BED6E0" d="M120.666-35.588l1.83-1.237-1.987-.973L14.532 33.836l2.535 35.751 1.986.972-.156-2.209L123.045-2.047l-2.379-33.541" mask="url(#b)"/>
            <path fill="#FFF" d="M125.031-1.074L19.053 70.56l-2.534-35.751 105.977-71.634 2.535 35.751" mask="url(#b)"/>
            <path fill="#FF65A7" d="M41.464 49.275L25.507 60.062c-1.108.749-2.094.107-2.203-1.432l-1.31-18.466c-.109-1.54.7-3.394 1.807-4.142l15.958-10.787c1.107-.749 2.094-.107 2.203 1.432l1.309 18.466c.109 1.54-.7 3.394-1.807 4.142" mask="url(#b)"/>
            <path fill="#BED6E0" d="M116.1-20.445L46.912 26.322l-.198-2.793 69.188-46.767.198 2.793M116.651-12.679L47.463 34.088l-.199-2.793 69.189-46.767.198 2.793M117.202-4.913L48.013 41.855l-.198-2.793 69.189-46.768.198 2.793M19.053 70.56l36.621-24.754v-.557L18.978 69.962l.075.598M7.558 61.066l8.606-4.208-.04-.569-8.566 4.232v.545" mask="url(#b)"/>
        </g>
        <path fill="#5AA7FF" d="M368.81 458.106l-56.536-32.642 81.816-51.214 56.536 36.62-81.816 47.236"/>
        <path fill="#8EC2FE" d="M368.81 456.344l-56.536-32.64 81.816-51.216 56.536 36.62-81.816 47.236"/>
        <path fill="#3A7CC9" d="M368.81 456.344v1.762l81.816-47.237v-1.76l-81.816 47.235"/>
        <path fill="#60A2F0" d="M312.274 423.704v1.76l56.536 32.642v-1.762l-56.536-32.64"/>
        <path fill="#CFD7D9" d="M314.767 409.764v14.08l54.043 31.222v-14.079l-54.043-31.223"/>
        <path fill="#A9B4BA" d="M368.81 440.987v14.08l79.043-45.54v-14.079l-79.043 45.54"/>
        <path fill="#60A2F0" d="M367.389 456.344h1.421v-16.263h-1.421z"/>
        <path fill="#5AA7FF" d="M368.81 441.14l-56.536-32.64 81.816-47.239 56.536 32.642-81.816 47.236"/>
        <path fill="#8EC2FE" d="M368.81 439.378l-56.536-32.64L394.09 359.5l56.536 32.641-81.816 47.236"/>
        <path fill="#3A7CC9" d="M368.81 439.378v1.761l81.816-47.236v-1.76l-81.816 47.235"/>
        <path fill="#60A2F0" d="M312.274 406.737v1.762l56.536 32.64v-1.76l-56.536-32.642"/>
        <path fill="#3A7CC9" d="M368.81 439.378v18.728l81.816-47.237v-18.727l-81.816 47.236"/>
        <path fill="#60A2F0" d="M368.81 439.378s1.2 4.612 1.2 8.834c0 4.223-1.2 9.894-1.2 9.894l-.711-10.793.711-7.935"/>
        <path fill="#3A7CC9" d="M450.622 392.142s1.201 4.611 1.201 8.834c0 4.222-1.201 9.893-1.201 9.893l-.71-10.792.71-7.935"/>
        <path fill="#5AA7FF" d="M371.11 427.67l-44.843-25.89 64.893-37.467 44.843 25.89-64.893 37.466"/>
        <path fill="#27E0C0" d="M371.11 426.272l-44.843-25.89 64.893-37.466 44.843 25.89-64.893 37.466"/>
        <path fill="#07997F" d="M371.11 426.272v1.397l64.893-37.466v-1.397l-64.893 37.466"/>
        <path fill="#08B092" d="M326.267 400.382v1.397l44.843 25.89v-1.397l-44.843-25.89"/>
        <path fill="#07997F" d="M327.394 401.046l6.938-4.004v-8.963l-6.938 4.005v8.962"/>
        <path fill="#CFD7D9" d="M328.245 392.482v8.012l42.865 24.763v-8.01l-42.865-24.765"/>
        <path fill="#A9B4BA" d="M371.11 417.247v8.01l62.693-36.12v-8.01l-62.693 36.12"/>
        <path fill="#08B092" d="M326.267 401.046h1.127v-9.744h-1.127z"/>
        <path fill="#5AA7FF" d="M371.11 417.368l-44.843-25.89 64.893-37.467 44.843 25.89-64.893 37.467"/>
        <path fill="#27E0C0" d="M371.11 415.971l-44.843-25.889 64.893-37.467 44.843 25.89-64.893 37.466"/>
        <path fill="#07997F" d="M371.11 415.971v1.397l64.893-37.467v-1.397l-64.893 37.467"/>
        <path fill="#08B092" d="M326.267 390.082v1.396l44.843 25.89v-1.397l-44.843-25.889M326.267 390.082s-.736 1.985-.736 6.092c0 4.11.736 5.605.736 5.605v-11.697"/>
        <path fill="#FF65A7" d="M324.691 426.272l-3.207-4.896-3.208 1.193v-7.407l6.415 3.703v7.407M368.81 425.526l-3.207-4.897-3.208 1.194v-7.406l6.415 3.703v7.406"/>
        <path fill="#FFF" d="M377.235 445.081c.193-.113.352-.268.476-.467s.187-.406.187-.619c0-.213-.063-.348-.187-.405-.124-.056-.283-.027-.476.084l-1.022.59v1.406l1.022-.589zm-1.022 3.417l-.96.554v-5.21l2.11-1.218c.474-.274.844-.328 1.113-.163.268.167.402.49.402.967 0 .475-.135.951-.406 1.43-.27.478-.64.853-1.109 1.125l-1.15.664v1.851zM381.442 442.651c.198-.114.361-.272.487-.473.126-.2.189-.406.189-.62 0-.214-.063-.348-.189-.403-.126-.055-.289-.024-.487.09l-1.008.582v1.406l1.008-.582zm1.684 1.855l-1.102.637-.887-1.34-.703.407v1.851l-.96.555v-5.21l2.11-1.22c.464-.267.833-.324 1.106-.169.273.155.409.48.409.974 0 .428-.096.83-.287 1.205a2.87 2.87 0 0 1-.701.912l1.015 1.398zM384.97 442.067c.25.18.58.148.991-.088.41-.236.741-.59.994-1.059a3 3 0 0 0 .379-1.445c0-.494-.126-.83-.379-1.008-.253-.175-.584-.146-.994.091-.411.237-.741.59-.991 1.056-.25.47-.376.95-.376 1.443 0 .495.126.832.376 1.01zm.991.896c-.681.393-1.244.465-1.688.213-.444-.252-.666-.767-.666-1.548 0-.782.222-1.554.666-2.318.444-.765 1.007-1.343 1.688-1.736.686-.396 1.25-.47 1.694-.22.445.248.666.766.666 1.552s-.221 1.56-.666 2.321c-.444.762-1.008 1.341-1.694 1.736zM391.183 439.956c-.676.39-1.246.47-1.708.236-.462-.232-.694-.75-.694-1.552 0-.807.232-1.59.694-2.352.462-.762 1.032-1.338 1.708-1.729.821-.474 1.443-.445 1.867.086l-.798.961a.62.62 0 0 0-.443-.232c-.188-.02-.396.037-.626.17-.41.236-.749.593-1.015 1.07a2.958 2.958 0 0 0-.399 1.456c0 .495.133.827.399.995.266.17.605.137 1.015-.102.189-.109.372-.253.548-.432a2.9 2.9 0 0 0 .413-.52v-.624l-1.191.688v-.969l2.151-1.242v2c-.509.95-1.15 1.647-1.921 2.092M395.837 434.34a1.4 1.4 0 0 0 .487-.472c.126-.2.19-.408.19-.62 0-.214-.064-.349-.19-.404-.127-.054-.289-.024-.487.09l-1.008.582v1.406l1.008-.582zm1.685 1.856l-1.103.637-.887-1.34-.703.406v1.851l-.961.554v-5.21l2.111-1.218c.465-.268.833-.325 1.106-.17.273.155.409.48.409.974 0 .428-.095.828-.287 1.205-.192.377-.426.68-.7.912l1.015 1.4zM400.789 432.45l-.704-1.836-.703 2.648 1.407-.812zm1.637.914l-1.096.633-.278-.723-1.934 1.117-.284 1.047-1.096.633 1.746-6.219 1.204-.695 1.738 4.207zM407.736 430.297l-.967.56v-3.648l-1.272 4.381-.42.243-1.271-2.914v3.648l-.961.555v-5.21l1.347-.778 1.095 2.515 1.096-3.779 1.353-.782v5.21M413.52 426.96l-.968.557v-3.647l-1.272 4.382-.419.242-1.271-2.913v3.646l-.961.555v-5.209l1.346-.778 1.096 2.516 1.096-3.78 1.353-.782v5.21M415.373 425.89l-.96.553v-5.21l.96-.555v5.211M420.305 423.042l-.927.535-2.151-2.157v3.4l-.961.554v-5.21l.988-.572 2.09 2.067v-3.274l.961-.553v5.21M423.382 421.366c-.676.39-1.246.47-1.708.236-.462-.232-.693-.75-.693-1.553 0-.806.231-1.59.693-2.352.462-.76 1.032-1.337 1.708-1.728.821-.474 1.443-.445 1.867.085l-.798.961a.624.624 0 0 0-.443-.232c-.187-.02-.396.038-.626.171-.41.236-.748.592-1.014 1.068a2.964 2.964 0 0 0-.399 1.457c0 .495.133.827.399.996.266.17.604.136 1.014-.1.19-.11.373-.255.548-.435.176-.18.314-.353.413-.52v-.624l-1.191.687v-.969l2.152-1.24v1.998c-.51.951-1.151 1.648-1.922 2.094M389.615 361.626c-.702-.405-1.065-.872-1.088-1.4-.023-.528.317-.995 1.019-1.399.702-.407 1.51-.602 2.424-.588.915.012 1.723.223 2.425.627.864.498 1.132 1.088.804 1.767l-1.26-.248a.623.623 0 0 0 .034-.535c-.07-.187-.22-.347-.45-.48-.421-.242-.911-.36-1.47-.352a3.016 3.016 0 0 0-1.495.393c-.439.252-.665.541-.68.863-.014.322.19.605.61.848.231.132.507.22.828.261.321.041.632.036.932-.02l.437.724c-1.197.183-2.22.03-3.07-.46M394.108 362.991c-.035.197.08.371.343.523.263.151.566.218.908.2.34-.019.65-.108.928-.268.272-.158.424-.335.457-.533.033-.198-.083-.37-.346-.524a1.585 1.585 0 0 0-.905-.197c-.339.02-.645.108-.917.266-.278.16-.433.337-.468.533zm1.358 1.424a3.425 3.425 0 0 1-1.798-.45c-.536-.308-.794-.654-.776-1.035.018-.382.275-.715.769-1 .494-.285 1.071-.433 1.728-.442a3.42 3.42 0 0 1 1.791.45c.536.31.797.654.783 1.035-.014.381-.268.715-.762 1-.494.285-1.073.434-1.735.442zM398.413 365.801c.148.085.329.15.544.19.215.041.415.051.599.03l1.184-.684c.037-.106.021-.22-.051-.346a.883.883 0 0 0-.329-.314 1.6 1.6 0 0 0-.88-.196 2.024 2.024 0 0 0-.942.272c-.286.166-.441.345-.464.541-.023.194.09.363.339.507zm.949 1.356l-.887-.512.43-.248c-.614.041-1.129-.06-1.545-.3-.434-.25-.634-.546-.599-.885.034-.34.324-.668.869-.983a3.663 3.663 0 0 1 1.697-.5c.596-.023 1.111.09 1.545.34.426.246.599.543.52.893l1.704-.985.887.512-4.621 2.668zM404.378 365.773c-.143-.083-.215-.185-.215-.304 0-.12.072-.22.215-.304.143-.082.317-.123.523-.12.205 0 .379.042.523.124.147.085.222.187.222.304 0 .117-.072.217-.215.3a1.052 1.052 0 0 1-.524.126 1.024 1.024 0 0 1-.529-.126zm-3.263 2.396l-.88-.508 3.346-1.932.88.508-3.346 1.932zM405.126 370.485l-.88-.508 2.024-1.168c.415-.24.417-.478.006-.717-.319-.183-.705-.254-1.157-.21l-2.251 1.298-.88-.508 3.346-1.93.88.507-.437.252c.638-.032 1.201.093 1.69.377.361.207.538.418.53.632-.007.215-.177.418-.509.612l-2.362 1.363M408.34 371.413c.143.082.324.144.54.183.217.041.416.051.596.033l1.081-.625c.037-.106.021-.22-.049-.343a.846.846 0 0 0-.325-.313 1.616 1.616 0 0 0-.863-.209 1.845 1.845 0 0 0-.904.254c-.282.162-.428.336-.439.522-.012.185.109.351.363.498zm-2.327 1.152c-.578-.334-.892-.707-.943-1.12l1.033-.14c-.028.303.182.584.63.844.25.144.531.23.845.26.314.03.621-.043.921-.217l.34-.195c-.628.043-1.147-.055-1.559-.292-.434-.25-.639-.542-.616-.872.023-.33.304-.653.845-.964a3.456 3.456 0 0 1 1.666-.486c.575-.015 1.08.104 1.514.354.416.24.588.537.519.892l.43-.248.887.512-3.118 1.8c-.304.175-.62.294-.945.358a2.785 2.785 0 0 1-.933.03 4.094 4.094 0 0 1-1.516-.516zM380.73 365.307l-.984-.567 4.62-2.667.985.567-4.621 2.667M384.762 367.635l-.88-.507 2.023-1.168c.416-.24.418-.479.007-.715-.319-.186-.705-.256-1.157-.213l-2.252 1.301-.88-.509 3.347-1.933.88.51-.437.251c.637-.032 1.201.093 1.69.376.36.208.537.42.53.634-.006.215-.177.418-.509.61l-2.362 1.363M386.673 368.836c-.309-.179-.466-.36-.471-.544-.004-.184.142-.362.437-.532l1.746-1.007-.555-.32.77-.446.554.32.915-.527.886.512-.914.527.679.393-.77.443-.678-.39-1.51.87c-.107.062-.167.13-.181.201-.013.071.026.133.117.188.139.08.273.12.403.12l-.478.491c-.305-.01-.622-.11-.95-.299M392.306 369.696c.175-.117.271-.26.287-.426.017-.168-.107-.326-.37-.478a1.506 1.506 0 0 0-.808-.206 1.932 1.932 0 0 0-.759.157l1.65.953zm-2.841.752c-.517-.299-.782-.639-.797-1.02-.014-.383.243-.724.77-1.029.494-.285 1.072-.432 1.735-.437.663-.007 1.246.134 1.749.425.499.288.733.62.703.994-.03.375-.32.721-.869 1.038l-.194.113-2.487-1.437c-.194.144-.279.308-.256.492.023.185.17.355.443.512.148.085.338.161.571.226.234.066.452.097.655.098l-.18.552a3.812 3.812 0 0 1-1.843-.527zM392.687 372.212l-.88-.508 3.346-1.932.88.508-.457.264c.282-.02.57-.002.866.051.295.054.542.138.741.253l-.859.495a1.442 1.442 0 0 0-.222-.15 2.046 2.046 0 0 0-.582-.21 1.888 1.888 0 0 0-.623-.047l-2.21 1.276M396.115 374.19l-.949-.547 2.003-2.708.942.544-1.455 1.848 3.201-.84.949.55-4.691 1.153M401.997 373.307c-.143-.083-.215-.184-.215-.304s.072-.22.215-.304c.143-.083.318-.124.523-.122.205.002.38.043.523.127.148.084.222.185.222.302 0 .118-.072.218-.215.301a1.035 1.035 0 0 1-.523.125 1.025 1.025 0 0 1-.53-.125zm-3.262 2.396l-.88-.509 3.345-1.932.88.508-3.345 1.933zM403.937 376.411c.175-.117.271-.26.287-.426.017-.167-.107-.326-.37-.479a1.511 1.511 0 0 0-.807-.205 1.91 1.91 0 0 0-.759.158l1.649.952zm-2.841.752c-.517-.299-.782-.639-.797-1.02-.013-.382.243-.724.77-1.029.494-.285 1.072-.43 1.735-.438.663-.006 1.245.136 1.749.426.499.29.734.62.704.994-.031.375-.32.721-.87 1.038l-.193.113-2.488-1.436c-.193.144-.279.307-.256.492.023.184.171.354.443.512.148.085.339.16.572.226.232.065.451.098.654.098l-.179.551a3.827 3.827 0 0 1-1.844-.527zM407.311 380.655l-.936-.54 1.572-1.725-2.985.907-.942-.543 2.328-2.519.914.527-1.628 1.66 2.985-.877.783.454-1.517 1.723 2.876-.94.914.528-4.364 1.345"/>
    </g>
</svg>
